<mxfile host="app.diagrams.net" agent="Mozilla/5.0 (Windows NT 10.0; Win64; x64; rv:132.0) Gecko/20100101 Firefox/132.0" version="24.8.4">
  <diagram name="Seite-1" id="4YSJfOpFCfUjbprgWO81">
    <mxGraphModel dx="2327" dy="1938" grid="1" gridSize="10" guides="1" tooltips="1" connect="1" arrows="1" fold="1" page="1" pageScale="1" pageWidth="827" pageHeight="1169" math="0" shadow="0">
      <root>
        <mxCell id="0" />
        <mxCell id="1" parent="0" />
        <mxCell id="sbt_hyZxBfFW6GqUvSIC-17" value="&amp;nbsp; &amp;nbsp;&amp;nbsp; &amp;nbsp;&amp;nbsp;&amp;nbsp;&amp;nbsp;&amp;nbsp;&amp;nbsp;&amp;nbsp;&amp;nbsp; Kubernetes Cluster" style="rounded=1;whiteSpace=wrap;html=1;verticalAlign=top;align=left;" parent="1" vertex="1">
          <mxGeometry x="-240" y="-90" width="400" height="310" as="geometry" />
        </mxCell>
        <mxCell id="jPVWJ0DvIGIK1T8upTcY-18" style="rounded=0;orthogonalLoop=1;jettySize=auto;html=1;endArrow=none;endFill=0;strokeWidth=4;" parent="1" source="jPVWJ0DvIGIK1T8upTcY-17" target="aVNAB7Wc_1VSGetC9ETK-13" edge="1">
          <mxGeometry relative="1" as="geometry">
            <mxPoint x="280" y="-7" as="targetPoint" />
          </mxGeometry>
        </mxCell>
        <mxCell id="aVNAB7Wc_1VSGetC9ETK-23" value="leitet weiter" style="edgeLabel;html=1;align=center;verticalAlign=middle;resizable=0;points=[];" vertex="1" connectable="0" parent="jPVWJ0DvIGIK1T8upTcY-18">
          <mxGeometry x="-0.0089" relative="1" as="geometry">
            <mxPoint as="offset" />
          </mxGeometry>
        </mxCell>
        <mxCell id="aVNAB7Wc_1VSGetC9ETK-5" style="rounded=0;orthogonalLoop=1;jettySize=auto;html=1;exitX=0.25;exitY=0.25;exitDx=0;exitDy=0;exitPerimeter=0;" edge="1" parent="1" source="aVNAB7Wc_1VSGetC9ETK-1" target="jPVWJ0DvIGIK1T8upTcY-17">
          <mxGeometry relative="1" as="geometry" />
        </mxCell>
        <mxCell id="aVNAB7Wc_1VSGetC9ETK-6" style="rounded=0;orthogonalLoop=1;jettySize=auto;html=1;exitX=0.625;exitY=0.2;exitDx=0;exitDy=0;exitPerimeter=0;" edge="1" parent="1" source="aVNAB7Wc_1VSGetC9ETK-1" target="jPVWJ0DvIGIK1T8upTcY-17">
          <mxGeometry relative="1" as="geometry" />
        </mxCell>
        <mxCell id="aVNAB7Wc_1VSGetC9ETK-7" style="rounded=0;orthogonalLoop=1;jettySize=auto;html=1;exitX=0.875;exitY=0.5;exitDx=0;exitDy=0;exitPerimeter=0;" edge="1" parent="1" source="aVNAB7Wc_1VSGetC9ETK-1" target="jPVWJ0DvIGIK1T8upTcY-17">
          <mxGeometry relative="1" as="geometry" />
        </mxCell>
        <mxCell id="aVNAB7Wc_1VSGetC9ETK-1" value="&lt;div&gt;&lt;font style=&quot;font-size: 19px;&quot;&gt;&lt;b&gt;User&lt;/b&gt;&lt;/font&gt;&lt;/div&gt;&lt;div&gt;&lt;br&gt;&lt;/div&gt;&lt;div&gt;Vom / Via Internet&lt;/div&gt;&lt;div&gt;zb. TBZ, sipcall AG, ISE AG&lt;br&gt;&lt;/div&gt;" style="ellipse;shape=cloud;whiteSpace=wrap;html=1;fillColor=#d5e8d4;strokeColor=#82b366;" vertex="1" parent="1">
          <mxGeometry x="-200" y="-310" width="290" height="180" as="geometry" />
        </mxCell>
        <mxCell id="aVNAB7Wc_1VSGetC9ETK-8" value="HTTP(s) Connections" style="text;html=1;align=center;verticalAlign=middle;resizable=0;points=[];autosize=1;fillColor=#f5f5f5;strokeColor=#666666;fontColor=#333333;" vertex="1" parent="1">
          <mxGeometry x="-120" y="-130" width="140" height="30" as="geometry" />
        </mxCell>
        <mxCell id="aVNAB7Wc_1VSGetC9ETK-19" value="" style="shape=image;verticalLabelPosition=bottom;labelBackgroundColor=default;verticalAlign=top;aspect=fixed;imageAspect=0;image=data:image/webp,UklGRmRJAABXRUJQVlA4TFhJAAAv/8F/EFXpnv9v3d646Z/SvyPHxcMwJwu29Ny/63c/kklm5pWZ18zMa9w1k8wMa2a2jLIse4PPcz/3fV3f6/pe9/0Ur/E9KoScDDMzczx1mDzlhtETTZjBRyVvpgszYY/DjJ4wM0c5sCeccpgTzYSTcpgT786EmXZ3JqCFWc2EmRReKLdhZrg1oYWZhhlcDMjBJ94yPGHmRBtwfNc74USFcOJ1KfCU+1sqBBQGb3FnJJc8E2YG5cRHZWZu7ZOCpZQbRpVh+WB14JTsg90ceO4ZpRTmeFVmsA60pYAXZ2KVIcxQRpVbhUnlumcBbZm5VTLDS94JaAsB31OrGCjTXiXvwZa53lLQKTlVac/KzA1nPdi27STbtm1W/SrO1c4KXNcdj+vUPdfasAkSFQRFxICKOSHBw/7/85Ft27bSQMa0olIaaC7RXEoqrVGErBEpMs/T//8bvt+ftsW67fv+aPbHOFEAA4AA25yzbdu2bdu2bdu2bdu2bd+fUTeeaNuWI0mSJMXaa2lr9ppPIBDxIyIQePb6Bv+J8PoG//ldudoC0dGR61joWhO5juVN+CdA15rIdSx0rYlcx0LXmsh1LHStiVzH8ib9o9x7G17P4P8/20YQO+6wn9imj9KE/qbpQzBKULxe+83NL0V3XfJiaBDZHEE5wtjXFLDUIHGOCHxvAoVvhBAhxsbsi0H0uUF0n0HyJALe0MZ/ZS7gpim3jAwxAyHR0wQcJBA/dNgWASEqGPT6tDYFviPAJSZhreL+TaK6Y8r9mq2/E9WQ2MQEXNBaU3DYCIlAU8B6Qw6LRXpnD2LZ6RQ2ScYbhH9rOk42U+AdQ4rOsYxRlMis2XmlNDaW5xrEf/goOd8Mxn9tTMasb5KIH1kVWy+l3xuDWICXCk0sNmafDZambKCbThAZNXu3ncFgealBNCRIhTYWg/ALAc429FGiyCYbRFaDyTqDaCjdEmOJhRB8+wgELImbFHCPbCxyEII1BDQ0CCx8IySCTPDFNn2YPLI4d2gnntsUuIUQhHvhOf6JCVizkMjg3OFKTIF7tQ+cs40Qhi2NMMsU2Zs7XIkJOKapgMZiMAs77Vhmq6CbE3BvrpxAXNRUwGMxmIafdggP80fSFLCPeHUTcEVT4RMLIXGUAAtHwpT5x59fRjYFXNfiCNtyjhzJksskqE+AD7VQHP+kQORJmb+SEcwRb0FIPNEicbIRErf+XoHIEfOvTkRCww6mwDdaKM43Arxj437rNzw4ihz5ce37ZgL/0FTEicXG/FmITjqvX3EQOXIzd2j8jKLtmyngL01FrFgMxpf7dhSRl7lDQ/EYBGKgCfygqYgXi0Hi9b5tU+Rk7nADJoXEBuEoQuKjRiF8MwH/vP9h3QflNmygV0hqsDyFAL5rHCJspoD/CMSoOD/9WJGL2YNYdiEt7UCZ2LEQ4GcTMClUa8dxD9zaQJn4sRCiX/dmtmEpuRvgzgbKcMRik+ybjcncojWe1PNnJ5aNdqAMTyxbtbt2kLSePXPEc36KfxPELSwCU2Dw7n4CuQtI3fh7sRQvchGHk96C1OcOJT9QJgER/mQvQkeQV+Jzh25moAxxLCYgnAD3hqhmEc967vDKTYGXNBXssdiYng/R2xXkLCBjuUY2wa9qKjKIxSA8N7JHLNfIBOKGpiKLWAjE+ZELeLpiGdXfzRFvQSAeaXlxHE5aai5P1ghLJSSeapmJsBHg3aWu++Dfv3qqjiKbwcO3WmqcbaaA59muTpLcw0CZrGIxmL4M0eU+63L6FcPTVIJg0WkHymQWi43Za5uU+5hGLbInOXdoU3LcYSgHymQXy10OY2p/YniKc4dF2Z9JLs0U+EnLmONwkgznDqU9UCbLWAjwy9qKoUEc6VGyM/txNZ1BZJHBPNAnZ87G00wBE+xDjO/JzR4UraoZ9sYmeaBX1pxub90gmD0bp5LKUxPbLGWkHSiTcSwGsyCD5XWxrEImeZHwQJmsYyFgwZ8i9DdN72l5egLcQoiGB6nIPJYXW5pJmMmTYh/yIrQDZbKP5cX2wpDDPFISkOdAmVuIZei9sNFf+T2hucOVEIjj2g1xthESR03wQp7O3OGVE4GXNRX3EouN2flYqlfRg5k7zDUyIbymqbifWE7d4G4tqQhIJPVcf88U8EBTcU+xfNORC8iDXAbK3CfH8TRJkMpAmRvlZDxNBiQ3UOb+YiEQz7KV+fPnN8/AGvaNQPyp3SunGyF4YTD2XJ+JN5r7tzvvnwh8r6m4z1h26g43YO6PiZjMBsrcaywG0b8NwoHDIp87lNFAmfuNhRD+O0wsg8d0z3OHRfm5ZLQDZe45FlPg/8PsrPudOzy9vSFgAT4PgZMBRbQHAe5+oKxYJso06sp3Cko2mkxJSGIpEsKvH2Em9zl7EKI1cqxZFgNlxUlZY9mdHm42cxsoDT74we8fqFVpt9pUw+SVHUAOeyKD8duJzcYtpnKPDEmyy2OgrK5ZxCDNlA0Z/LDBgx/84VtKq8e7TblWlSTuiDZ+zVvq/hhC5JLIQFkL61OWE5Y1aKtStZ9BB2MsBBi8u5/AvTEJi8pkoKzh+T3nLGuwdlJ5VoUc+HT4gCIibn2grByrZm69kguWtf2SEGFAEZMAIishECe0TOg2d24uWdYeSoGzAUW3M3dYYGTZDJQVQ9Tg/TjXrPYOO2RQF+cDiiZIITRzh+56oKwy9xMFq7+PEV1dUMdy6rFUryKSuUN3PVDWwPwBBcsqUe+hgzuWD2IKVh3FcSGGgTIT+FhLiK/RpR+NlKWZdXSwxxI2oCh7Iyz1v2gp8Ta+9KHhL8OqooM/FhN4e6m5ZO7a921hWlKCjS6v0fCXYVbIh5MBRYG58YGyupIgGv7iVZd0OB9QFJU7Hyib4ySORpKBgp0I2XC+Heh1rHd0Gl22irIw3jAPqqXGW7mXRcE/UDuJjkRi2fABxQ1MAjFk6gNd2qK15PjKt8so+Pt9G2nZ1YoQ/PP+hxVz7lDMgTKDxA8tPbpkvYtCyl4es+RXq/ABRRHnDt31QFkc4jZ4oOCa1fVlifRq5TiguCeymzucvdvIeMIGsWCvFGmduFVxzeqo2iQ7zgYURTtYEEtss5TWJunaGw7Kku7nY+Ka1dZun/Q4+RNCOCLOTyuqrGYPYo9YtG9jY/4jKE/65VyzVkpHUrEQon9s3L+SEiKgsUH8fVCmdOdnJ9esppbX6EgrFoPpnVhmp6h8XD0hWOyVK93Ofo9rVoPzBzIV9BqEIcMMJxnjH6hs6ZY2J1yz6oifOZJn/d7tTFJBMKxLgAHSpS/dNav6MEWytL5LgmE+MQTEQCC6G4xh8qUbSIMo5g6PU7a0fut2QAVpzB0+s0/CdK1RHMXgWXl2hVRFOE1eQlhbEnOHJqC/lOmq/AyKwbNSVYd8aW0KCLUPWT0pzB2aI2y8SCnzVeB8oRg8K4YpKd98TIEBBvHC/AX4IyzKGyyC5MxbqlHn2tw6JSnTvof5POgtgAD/l7RgHE3ievBswK+WrOtnML2/gXEqHnK5DBZHZd2uYDBRN87l5FGvrxnSrp9N0hW4KUK8v7x5E370XE4edXObJ+36+cyRqIzaVzWYB8mbr9eHlcvJo45PDtKun17Mz0FMGUwOSZzu6rLC5eRRgsM2addP691HLETvVJA53f5xm8vBs5a2HvKm/9xbQDt3uK5ze0SDyA2Z063uDrkcPGt25SVvWhPCDWjnDm3cby51utncy+Xg2T5InCaEYXYS2bDOHdokuyB1upF5gMvBs3pnjyRO66VxPYDgKbZezyd3us44wuXgWU2TBJnTBBgSKkVCnLMHNibL5E7/dZeDZxXaJTKnNSHRE6X1C1/ibJrc6Uq9HJeDZ8VJmdRpg8QNjKJDtH5tydNLdGWgr5bc+bxFWc28CAUI4ULJ0yVoEleDZ91cl0heMESSIQipLZQ8rfv/6LmYPGpxc0rygjZm+zk+fODnLUif7rha52rqWPKCBOzTOg/+/hXf3KEJ6CJ9vgazABeTR6UZbZLn9V0vvrlDAlwreXNwvtSbhNSdBjVXnHDuMOtLQjJnjqcNSJ3ebHxzh2uS/J+3uj1A9b6DVfhZUqdN4EZ+x4/cQt1dyfN1dHaget/B2pIIqdMGidfYKFOIOpLn7fFhQfW+g43lPlKntfkPT4aMMgVOlbxg/80UqvcdbLE8IHfaYNEAGbUOyTtbKv4OKye506aAmcgcxflImp1AmWZDtcGb+tKQpvIrre72dXhy6v4+q9+vDhX/YL1SP+9p3d0WdXjc0vLmWJNLv7riiCq9rFJUl6RvUgeOhJMzg5Fva7KPXnsU1XxxoaNqU+9PiyG6MRFebewCRSwZer7PGaPp/ErN0xelm03SvUmZAoOHRUUtX67KMJumfNhur3YZ6JYYYywL7/S8opniTI3TmJJVl0RpbdB3CVxzhyZgmzyVbLQ8Uuu7A/2+p9EtMbBY0re9d6kvCSldtciSNgkH4Zo7NAW+k6OzrSZ81eLuQF8fA7olBh5LH0+zuazPrCoUnBRvZoRwN6q5Q/P3MLUM21CS6qp7HrTfg3QT6JYYp1gSNWrt7nfVOo0rTpPI72ZGQP9bp8FyRE67ED6UXUBT6SlBSuqcPevktCZxr0S3xLjGMmg3Zr9rS8LiagOS28sGi1bVrJhmD0yB8+SmSE3ThI6rDenolpgAsQzUTGpj53Zq2WUmaNP6bTGNnhDAdUHKlixHjlDiBGxDWWZD/gG/OnRLTJhY+vmYNJ7dKknvkZegjekyRH62QSxEhLJlazB90P11QZJugmVl6OzkVE/ypIhQbUhWc5TQ5WXVBvcKlsjCt3TLq9z9ICteQnCPx+AZ5tcbPtLAjUbEpv6+IcVpQ7aG5r/8PssSWsRt7bXHUXmkxDf0w6MRsLE0UoCyzaU447ytLWwO2SUhRhtK0TuaW3klatQswTnd+nsbbUtcTSIhWp8fnzXEJdRog+gB/iUaylVbO7ssK0bvE6ANpam2VrZH0llUBI4l4VejieWV4vQecZbOiu+ww8Omnu5z9r+Lq12zxan4XpYAeRCIMWjmDv+7jfl77iWqwsuKcdnWrq82xWsS3iUfL29SC5mwbcBGpfHsRmExLL2V7ZGkEXLr5mb38bjn8W7RzB3O3m7n4M4O0MfLjKKtPd3n5eCaR0laz0oH78ZZVBDEMmCtNX4c5gRQiZuXsDZwlkfS6Xgv47f+obDMHdpY6sB9B/kfqNq69iz88sja6CJg0EbFwsnhmLm2KMYOwNuMGZ3nEVV3EsZ7GV8vjzUU4BKqwbiM+/3j89C1sI+XWamqg1ceNU5+6/tlYmHluA1T4biErzGjXOWxQb1SxeMCzsuYALsiodbI/f5xYyhb2PfbpHSjhUse5doVo1jIWdYGDZRa3R7KwW+Z2AHyU+RRKDvfZUyA65DY2RfjfrhFPQOwzLKMOvg84miyZlZeGfFyul1EPbNHJlGclkkouDZ2HlR5VBekcKUJwQsclCGxCnc6STuBuoX913qpoPOoMnzT19vEooIyls4vS/h8ZHVcZsaiy2OFXGkdS34nRUEREmO5cvzML/oWZirfLgPN40ja3O9KKQ1+/2E2mAXYiYNfJtk2gjKPAWodvrRBoi4Kaqe502MwtHCARq1CJwcwj6rCpH5qHTqIY+nhbjM6dO2n7/FuQ51HCfoAVz4b0xkoDEcIv3Knp2Vp4S3PwfsAlcdVtrA9lEYyLGu0zLC1X1yfr5/o84hndHDlNZheRDF3eL386TyvxtLCgbtJlXtZMHlU5H7q9T3DTwV9LKOWqPUB1r48q+Iy6PNI0iscIFfBX32CGOYOr5k/rf/xBg0UWFo4WjV+GkQe9S8CEndKHJdJon5c949ZbVdbmi3O1J8G/fUe7/Oo43upFfb1mpGa51Lsv9aryn8HVvv4Tt78GPLo6WXBVzAYorolMcwd3q4AtG+tTC1MWkOYxJxHsXpPu8cNfk4SNWrb/0xbVZZdZjLhkEevTyvq+Faq9UiLmvHVOz879Ftr8doTxVy6HQCm9lUHGRlY8mh+e4Iz7zuFpzjsqNYkAu9Ha/2wh6mFGR+JMeYKnLzePiZclsQnS7B3qWsWMbodwFkemajjS1C6RMy3VLOuljiixe2BXh5WMVz2bJ1Way4FovY1RwlDdGNY8hixNLOGM58pYAc8BW93hRAMEqaaKi4cEksL09YeRTHFXMssIlE/Dl7GLs+rGp7fK98uc5VHnhjqmDup1jmPb+m1xTGT3DyHO7beX9PKHRew1z5zaqY8Tos3fZcIRk9MIerQ4RJLDZOkgb8aLC1MXXcSRh+zyVTTq3NpoGXo4Ljll89MUYOJ6GN+Kdf5VuwUNLO61OvTCvw4ZJB2Qo1RDGvtdySKKY+53haEMsGb1rspPHUfotB6xV2cHVhaGDU+bcxxdUl71QY/rNTb/8sL09VgUfQxT05VqxxzWvptDPBhaJp5MtXeDtDi+gRbzN3c55VotPGnDfpuLjy1DkE49KCReUA6hhZGNbIIoIu5VKOhh4cVrL5fJo0t7kxEXYPqgxT6mDNRf0hd8+tjCb8asMu9jdIjlDj62udpu9zDFnOC47YlCNBLbQIXisvJC84F4bh9vN6fFixtuBqamMsdF/X90YM02ECpo2pDNUGaHYAh37pnYfQxJzcJUNcqVJPVHEfN9bokCvLO7gSKlxLafPPdGFPMA7UqdaYhYvTyVcAFwO+n7ENeRBQRGzFBFEML99p1zPH9Dx8Q0MDtpObXJ0o3mtjybTLzY4i5GH2ApVajt771gJxu6u1pMRFdvjMPwxRzFxe70qwaUT6D4OeIPne4fDE43TZlwK8WfQuT9Aq1RjGuYq5u8tthwvlkjec+xase1nzzMsS8RWy1WnpTuc99QrGsft7TjpUm3yy9PGaxxHwaDSzuTChML69E9LlDQrBNNNpXkmrp+OxA38KMVfpZzuOrbRY2WK8E5gM2lN0CeH1g+8dtDEvnWFhrVawkmshuJGrUgFjWqkd3HfNEL8dSqx90oAL1kkCMEn3ukBB9JxxvcMJ3OSt1C+9zcVpnOVfH+GpPwtJBmbW54sSRQOTbzWUJw9KpMkxhj3nmpldXMkA9CrnPisZFLv98coZaJe6UGl/6CHXqywR4GFoAWtGqnp4O/1jKt8vWSt3CLRip8LPF/Lx8YfHVkTyBskG9QpvljlLNOph8CzIsnZqiGIhalah6WtnuOxGgGiRqVObgfnIeczxtYO0Menxa7KNYvVz0BxBawJC9lkLy6XytbI5E0bZwklO0LKtgJW6er470CZQuzqsqcL5A5ZuoVWHYc9SfBMHUah+7vNgB3QHe8j46xhz+pGdWhv+1XW2mOHeMovWyKKudR2jRBpEFQnJ4JiATUwt3td1qE5CCVQdpYPnGlRTLHcdCoWpVyzRuwFoLgt+fsNEod1wUFnPhvDFHrPXz0MfX52tGfO+DeHvyEE3qKrToSxKV1kvv9LSGroWgsQzejRsqjmTg8i3DrGLJY6VgtZo5bwxIXRZenl2hK3VzCoa9VHn4MemfXmttd2DBAt6RP7fQZusHYxvEQgTl8CzkBSfl6wSuHzLfWVjymASwVqvq+2UCUpf+a70JHJbn4lPTxpfwY1CVn+EVUNBg9lRk0ecrImfb7hbiaLSG5/fsAKD51hDFseRxsZC1ypc3ivee0urguGVeQgp6QwyRSGABAj5MaFrHZaqFzaE0vFq4EWUYTcD51jN/wJLHS8HW6uQy8bX4OU5e+QTlW6zIc4emwP10hIql6smr/r5aXFqYcUw7AHS+Ta4useTRx8sMuFZL7+zsxNM7mV5YmhBOFnjusMD3FV0weI4XyaGFBRcFn29rWw+WPDJB12rsBhYBI/IyaKOSWYtLE+BZgecO3wId4WL565cB3cK29y53xCG3U2TJI7kdALxWlQdpN89H5yeniUSmT+8oQCnYo1RzBG0x0Dpbcyuv84FsYcZJueTWw82GaUnk5vDGto/GQYbMlHeUAsVighcSd/aAECxDwGE782UlblXgxkkr9XL45PZqTMukDLOJQx752j9sA3eKZy583wiwj7ijJ2tEQuvcBaFa2PNjTqmqg1NuSZmWyaJ45GEHaHrpEwXqMmqaJiDom8HDraIKe8E5FnaAFUK18MqzccotnjbAtpc4Sj61+qgZ4QzcaJxDPgx9MwX8Jezg2XNioaeD8vOy88otFdteopYojlOtZsgAZYpsOPqm4/xAKiGFv+AcC/0DCsFoMvPjl9uq2O4k6k0f8KrV8FBPQU2ApG/6xEGfTgR9jLrTWGido6f7HIAWRjUyD+CY27SWBTfuCplbqv4/ekD/r3XGEUj6Nl8B5w4dX3COhvYdWE9PM/YWjsEzt3HYjhGaXx/jV6uyzLofBiHsfavzIDkNBUHnDq8XEW8wntH2CdhbeHil6B38cmu+uMB2jPCqHGtVmlXTe20CYZpUSPpGQEOLmj7HFXPu8JoxCVbivUvSK7C30Lrb2uIobrklKF3YDhH3m+fPTH4YgIKlqxY0fePwlVVgdlS3i0lcfaD39zQ6rmNpp9p0JJxy6/zsxHaI2O1tEbdaFad6Wi49/AB+eBY8fTPkYJSQ1JoQCba8dYPh9/dVG1QZvOGTG+Ojmsl51aq6aUK/tRYE60QR9c0m6UEhhUqREJMqwzeHBMTvP6SWNify8chtwFqL7RFCJj61KkF1tXXY4QdhJWpVSjZa0PTNa7D4mEtAanmILKHv9zQ6tLE89vDwuWVPzpZHWjsAj1pVO3nVd60HJKV/v9HwaUN8ZxWQIoCpeHibLbwgWVba/EXAP5CONY/c8LUqQR9oZefmB+P31zCNQ0ObwPYCUjbJL+Dx58HfTPbZUgHnVv64gDWPfQSvVU1RQsKvBiR/Px+dYjQCC01IrBDQzvx2NMbu9moHzbJGO1HYn+M/IWseiwKuVZb2j1v8oPwptwMLvekCzh2GaK0SaPg+KhynW1fnFaWpFsjcap89Yc3jKGFrVcv0xUBfDWhWxlRI6KEvW7y5Q5smDUAj3zJ5sFIed93pA8DcGl1eY82j1igOslZZVpiSGvhgu5CxjCze3KHB8g4sdFO5Dx9hkbR73BBPdYDlNuf1MdY8GkiCAGu15vmBc/x6i0joZ4Y7qIB7huofYjHZxLz4/QuvYZIElVu7+x2secwp9wOrVZaOjpssPqwtsAPgoAnhKSXa7EHRqp4eC/0EdMBiubFsMLmNwprHSqFqteZBmim8WNaQOOgDLvNXMoJooycmeFMsyrbq0nL+GKgqvCyQ3Pp4mbHmMR+YWq14VIsfK31WFLS20V/5RZs8mi8Sut3DLr4sK3VzhVdWgNwSNWqseXRSrYH5tLD0PFnWdDhog7GnaINnR45E+XZZDD8Rt96fFhWNi5hzyxnFmsffBajVik/R4staZqjkUPDZJNssmGsnwBAc9Fj8WVbSJZsMGHP7nsx59PL+iblWdoC6k7BBWxXerJR1JE9Q8BrM3oE9oQD1BKUJXgaJ0WOYxkwA29rl1Y7xzePiO3nMy+TmWWv1Pbff4s//DpB80/lYdiGtWHOHpoBhOOhJWNo118uy0o2mrwTY6oFalTrSR0y5Tcm8TBL3SiZRTLWyA9SbPKJ8RRR8LLXMIlAIhmiDpmLNHX4ZHBaXnKFdQ3RjyrZqvCUbTT2/zSBb3XG1LgtDvjfNHnNxmoSlVktZC+QSi2lxcyqKIb5nR8H7c0WaOwx7wTkKOi/LkmhqdSUsvhKNlq8BeUsf6Ku1Gvp8Z2GP+Vjp62IHqD8NyQAp4wp0gnIPS3ynhoHPBL8KdUwJFNZbwCE3S1s/dBwpC48vnt7X830O6I4+QemSmzbfCdhj3gTquhzrLlqQknQTqgtTtG+igdtJDPHNHQM9rfEziiYQdUYo6Ibmv7C0tcYoLsK7fXV/WwB6P7/MU6PMdyz2mI+Ssi52gEkzgLrbcw2PubHchyG+mFQIaE0YSonC4QXnKNgBCjK0tZvbvAkjxFesJDYC9DAv6tMUpsr3PbLHvALXdYnwd0FlOimHmONIyYsyxLdSDLQJHCIQtUYM9NQMbU1TiffOSXyFTwC0/dbGbAJNvv18TNhjHp+mLnaAzBlgTZMqQsxnzBDf3RbGsCffC4Hs7IthoC+Woa175jS+keYOybKG6JUaz689gOt8M7DHPAtFXco267q92lmwHvt7OjklhvQM8dUZR2DYk5sC/y8gDPWcKKw4LX1bk/QK5Y0LnMeXdSw6DLGMUKZd4SrfbAAx/zyXdcneyDxgNGDzKEnvcRbzjAzxvUcUe3KTMJMw1F/GQDeW3WFo6565ijnP6UEK/0jw+pMgFxeVoyyrDiDm+biqS6qXsoBdfm6nNS2yTIb4UmHopX3E24gzd7jTGOjJ6duapvzxF5cx24lrfbeHDkss2+/846cqCzIAYj4853UJBTfm+UCbezFMuajpBTPE3GzuhaGXZ8h97tDZC84x2F6GtrZfraOImTD1X0CFf+Csk4cSPm9983sAS+chnNZl9P9jQTu9Iq5qWvg+GU5daWwEvSSE94WZO7xeDHRehrauiibmCZtfn4DksLW335EjYsxdX20Alk6UkzexTdZ4dispuPvK7rqmf44h5kr9dwh6OTTMlVGGoAyGrhhkH6DWgn6OfjuAWVb/td4MjjG/K5A9VhulR4TcyrMrns0C1+zKi6am42Wkj7nlnZv4vdS+2Ea/hiizBzamGxDQlftZDG2tI46gjXkW8CURdWOlGy0+b6gmg/rA+oayO+FPc409zhDdGHBRY9LVdAyGH3A/gPi8NkkmiDJ6YpPsBYZbSEtbD4Zp4qzUMS85ig5bLD0/zbq/zxqgUQM7Xunqtmiva4piGs9u9Pq0ssA4+7BkypqeK0PMlfkZ4gvamJ0QRFF+LhkGJlP9fnXo2zqX4gxDzJNG0UEcS7qapy+oa7p2+phb3JzAcF2k2S+SO9Bogk32GyDgnYP7gb6tUalYYp4uRiomrsZPo69pw9kN+pinsQMIL+g1JOQRY+7QIHk6AsGm8nP0be32ZscWc21RTFqJuNufxVDTvRmsV6KP+aDE5zMFdoNYVwCi/yoCwR4eVvSteRDGmGuZvvhP0jBgrVWBXcZU544vDvQxn4P49HKEmDvcmZ+MQClmQxrq1mT8bKwxVz9JeF+S8Puun63OtcVR9DGPIj5tAl4JMXdojmgRBIJ1po/o23p47DFXNUk6DSlY60SMdZ6Z/gFsxmyCc/g2CiLMHS4fAW87+130bZ0RIObKg4zE7SQJeLYfwFznw6OP+cnEp/8ewG4FIKzbRsDXf61H3dbkOSBifrvp0bv83Ox1fhD6mFcqPk1IzBCAWhgCqejbuhEwebzd9Mh1XG0YCaDOPyA1dcxbID69XAHcLwK6gSSIvq37AJTH7k6OWrv7XUVA6vxo1HmkzS0uZ99GgTt14gjo5dG3tUK7BCqP0W8esQmyw9R5Cvo8qgtShKe1CSzOnZovAvrlqNs6OdyHwJVt1SWsDdD6c1B12Vf6PJpeXRKfJhADuVNHjkCOKOq23hhgHsf6+3CKumCwuiS7W+o8Oj47iE+bgF2chb/gXHx6avpW15eEQOYxXu9PM3HBnx0VZSwvRJ3H0YhPE8B/6zRYjcB77tAEL4OA/nP0rf54sKevsgx8kq4Gss5NZn70eVyy8Hze2KqUhffc4ZUhoEelbnWGZMCfVDITNhm2GrTOlbkf6PPYKvEFQ9SgLe+5wy+DgH456lZvBPhHVvdwn4fLIM2U+M4X2DrHkTL6n4/csPiCNkmWsK4rxRpWge+LQOEY6lY3s7oEnke2UTAZ8Kvz8aDr3PXNhjqPscQXNIjd5Tx68hYQ0MPTt3p74fMofIF4/L47A69z85tj1Hk8tvi8i9wTvqMnZyS+sNdmUbf6kOKpDg55FMPU9mPxJUvRO+DrXFMUQ51H2pzC82lCoiLfySNCsAwBvR30Z/DIJY+cpwi5nKIKtbg5VUccUbGbc+/Fq65tLcOsqtzLqnf2qPWtR0Fg3d8WxNMGONS5NKOFPo9rEp8mEKP4Dp6tUTSwg9kJDtv45FGk/eM2MJOPu4/OY07x6ncL6ATuiEudM1HnsRrxaVPAEa52dpFii3AFgKhbvSZOeSS7MZilk35Sip8W5p5lNChj5eRT512kzqORxT3xaQL8MhybAOOqtGlQBQM9SKNG3ep75vYKptZ3HhBLp/3DtunpYl7KRsB4gmSc6pyXOo+84tP66XnOHdokGY9B8bqEvtVlmFXccjOJWgTz0kl+tfRL9obTAFipHYBXnetLQ6jz6PS0BgH9C3jOHR6HeKhOJpO61YP0E0wG/HKbsP1qHePSGa36IIUl5rqSoBNh1nR+hV+dz5X6+Ke3pwUC+odwnDv8VwbTrwh4qwxTqG/pz8gzt1LNhuRsfz414ykpsWqr3MexzhNRH9beJwLaFPA8DK+fPoYY9QIYBGudhVHf0l+Ia24vxbR0pmONeS7rU2xGm55jnbOno2TFFBGf1nGH/cTcRIfoUg8Mgg0vb1Df0ifgmtuNWZbFbZahyKMxPVjttFrDtc4PQcmySlVtCGhTiDrcRNuYbsAgSP8WEkvmmtvhMSydTABPGZVvl6VlelsJrnUehVbKCt08BPQ/4CZgML7AwNtW6UK9o5+SZ245WN4rCGRU5LcxsG6Ma53pnw+5DQR8f5UbU6cJUfCNSn0/v70ccwsFNxaD3xdKHEQepRltGelZSUtSXTzrPAn1cxo1xVEIeDf82yhwopaH7/q/OG9NxU4Bv9w2oevrEpY7jjuEyeP06FkpOzo7mJLgWOcmcz/q51fqSoMQCAbvmhN1HyjoLaA+RijdaOGTx65U4uY1X1woaLFIngUmj5Nj4Pdfdzl2Eb86PxX18ysNZXcwCNqkPJDX3OE6tMY8dP7ZOORxjNVMXrW2O8B8Oqi7CJRHkQz0wree7nOu5u1yqvP1IJ48CnoNxu085g4dvls4CnrV1MskK/h5f9x/29WWtwEwPzALVB5dnB0ioM+jUJNLv7fLo87VTn6jzqOF9SkMfAT4N6e5wyXioKlPODc5bB6lGm31zX/p9LIi7PwPAVhgJ6Z7yKwsx78BXucqwxTqPPJioLVNH6XhM3e4fBx0etplMmirAphHWUbdON3eFqXx+2GkLNVsgKpLHbNnUG9qP1Q5VhVsnV+XOo9Wd4dQ0KYQzfjMHtw2Djpxq0Lb1vkB5ZGscu/DSh8i7E4CjB/sUUMVQRpcHm+28aVPWXYZYJ2Hp86jjdIDx96dAOfzGT1ZGA568G4cbVsvAiLmfE/2PPdpWaASdePA6lKx+wEsj/Ctl4fVLKmg6nxS1Hkk2Lvg2LubwJtc3C8SOiltW9Ozv5Z/xlFHi7AkID+PEKwuFTh5dFhi+ZKzpAKp8yZQ53FjOPbupoDQq+cxeHbiwov4F7RtPW62mJeSee7JLQueP0mvYBIFVZdK/QxITo5ByrMq2Osc3/lCHXOC0gXJzdscQTkec4fzRUJnom3r22DZgQ9ViG5JwMRSgj4AVZcaJi9AORsguXTWw9B9pY75CZDcvAnhCB5zh0eOhE5YG9C2Nd2EdDGf8la3tDm2TMviJ2UlTh5UXRpd3LF45dbT0+wOyrZLWOp8rtQxfxokN+8vy2Hu8NqnRUK/N+q2XiVFzDs4xyimjcOeWwbfI/C6tlDz4Zlbr0+LcZdIndsM1DHPH8nNe9G54OcOTfAyWPh6ef5E3UKXX8FoW+tKQjo8Oc3q93MW9iZBUHXp723ENzdrreMukS63R6KO+WGx9NdOLBv83OGVYeGl/ypJx+o0ure7D183nd8vACtTHpi6jM45N8vxb1DkVtcsgjrm7cDSX5scdIGfPfgyWARHoG7hvkb8I8VQ86BrP6dYTg6mLlNw5uSRyJ93ldsFU8c8p6Uflv4aRNaAK2CQeI9FsIuLHW0LHV+QlXWG+d+8ZQnEmjtIXYpMA43lKyQ2kV8qZ1zkNLdZqONreB6Apb82yZ+Aj56ESJEZjeDfpm5hfWmIzr2CMQ7TssRiRZ0URF3uUBjh2zcbKkXEP/JSx1d3GoSlvwbT8Nk45aTQoyc/FQ1vK9tD1C1cy/5ntCzhWNYuAtTlji5DJCkd7oBSML689nrQ9NdGoiawgE2SFWjK4RuKbjmJHMuU7HWZc3FOuHwj/o2NoI7vwdD0d23Aog2mD9GUQzeQBiFjJW5VXoO1LnsYI2i+fbzMpngI6vj2EU1/DRJngM3OjcY3mIZhKUfYZ4cgY6V8c0fCVpc7y4SrBuGhlGI2oemvKTCgzF/JCLBzh7HMXg089Klh4/dvDtMFYyjNaOv7bYKPPy5TaPqrDYkFYecObZKMx0OnQMfvf7OlqA76GixxGoSOG09/tSl4b9i5Q4PEcUTlqNLPQtjqlJmqDjJoa1BbHJMBYw16fVjh6a9eGujc4QcghF+RlCNf9WFKa9sDl4Gx1ZYV9QTT09RlKadooaxBJ9U6PPS3UpCzB9eLROlGC9LLReH4/5h/PFc1uLP5D9GNQVqD34aH1gZ9p4QcPblmJLeGUHDng5dlWan3fw2jR6iBnbiTGvOlotDeBFranEiGhzZH2Bhy8uh2sdwa5oGS822wdsKzd3Je9bfbPW7o7LLsGdM55IuxBo4DtsurLYopQZMgoU3AHJrBM6wXlc1kolSjoRIv55EueDvy59+RQnTccSxpp8NBT0UB30Vly5ejqiDjppspzvzt7u+zVk+3xNx7LK+DgzYIQ9bff41NN3eI46KyFcnxEzLn7+C4ZR7pIywxz0OGIjj4vDa9VZ5u7lDwi8p2YpW4ObVHUXPK/Z7n108T4XP3PBbWYz9StZNXD1ahm1OmVRFHysQXtLE0Am7ucB0CpJm9PLvspue8PdZBtWYZg3QTpL7EUD4dVmjPHucKFpUN3cVpFPOispWuWlrcnDpu7C1M99idnZzytl3ueWxZL8Vp1vLbxt/D3RDzjogQ+2D++fYL1eyBiBeVzQ4wS3LELRy4mzTTRb58XWlIFX7W4rI75L+axK2KOLl1eV41zpDjr/SF+vmYxGBaigO3k7q7zznfw6gpSrimnKLdEdmHmAVq9mD5nNMscrEWSvfZw83mnoaqI35WiZtzYq5qcGpRguTm5JcSNNJBDdlU7tPeYdtMp4Gppqkf4oVWWm/yqAovqyS9R5w7IkMO20HNHtw25zS/NTIx04zybs9hzSeVm7YGnZ+cBMntKF3VmUiqdKtq6kYWASvq9mo3P1R71ESN2v95nvdUgfPlEEW4IyIklkONniyMr+qCFDQS90q9vU06Pjm0uDnwnmoIk8qzKnIy1mVMMfL99dSvfD7Xm3a4K8JzMzuaZotTB8b/OGT/XBLzorI9m/htGO1LdlRtWtYRVxm+mdcDwNSl3jREjHwfhy23kQ6qliiuidWVto9bZsJy9hPvaw3cD0OHjmWM4sEMnp04X6mEFb737fFus8pDvsPXGQ+25E0VF8TId1yI2ptMlWE2VBemjOn0rkjg2n9rOwBfWhPCas7nDgW9qGxHLGTJr6XLq12b5b6FTjt8PG2AS8n3X4warBIo34h3RVfez8ckRug977FwpglwPM3coXAXla3Z4gz4A7oBah3G+AastVrZHTqz6qcvyhsXnC3Hw61y7CJB2j94Ny4H+NdnLt8pqCmOGuYQZkrSjxP0jihtCr60KfAkzdyhcBeVreXSA7SUGzRQWEvVQYYelTG+gRqNUEnwrUGw+fUxUW79J8qn1dmP1eGuSLw7orb3LnzpA75qirlD4S4q28sDlrLPt1GzhdcSddiLPFnjuxy+NbBrRMKvhig7/0fj2urpz/Wm+3iaiXUcknQkrrTeHoq5Q+EuKtsFQZVyGc2tT8zB+zS249jph1/pOI/0/uZ6WUYf337zrUGNUYw49/2p+LY66/wYc+v5MSc9dA12km8NtEnYA2L2wGC6h2+rg2VYNRBtPcz2qg11pUGlGnUuY75p+pIP1iuVpFq41qCTyypwop4jaE3TBNbcxixST/JkrbA1uEO+NdCEcCPE6InB7A++vL5eHrOYP+w1/yfcBpqYt3WwgRJ9yZvM/XjWoDSzboN6BWFYv29srq3upFpDn9ushxQWgsOTmqv6NPcJWIMT5ctnEH0N4F550/+YpWyJGrUOjlsWNBF1zL+LvuSrDiWOYw2eiQMxzxG0FNVxPvS51ZWEZYvv5C1oWV2cHbI4RJdsD1vdHujvqwVVgxvnyxucbZhJxD54FluT6vCm7QAnQFm2qHk813EmY4m5vsU9hpLXHCXwq8GElyEQ//x5trrJ1SX63AbvxuRwFfMhVuplNL85BnOVNLlfp4gQ1S7JPndImA/nTescNK/du4hV1jl7loU15pKNJobvGfrr+dVgapH4P+Ax8mt1ToYzqjxFqpg3YTsem/0Ldh0jZ0GblDqxzx0SwkXcaZ1lr5yXLebZhqrEzQOZre/qssyyhPsAmrH4EPD8QO6fIbdpqV+HOafcj3Eau439Lt68hGA6+9whIdzOn9ZF1rDMCGX7ZG3v99QeRU0PFfNnZGj/O+FVgyzJheJ/y/xa3e19Hn1uE98RQ8xlGXVL7v62IIa6BudTjl3Em28vXM8dCvphM3niO18OpZni3Fy2R7aw5tmzcuySXQGMuXDiVoW+/anLtuo41aCx7A7UEruI1EDxZfwBvFpdVZDEsLRPjzHmiRpIH3R+XXIiQl6WKp8mhKfZ5w4JxDM6KGJZEUP7Pw2nw9/HBllOyfNn0VmnHKDWgdkTjc+rpl1c7Rj2bFX579hjjqfa6kgf/amjcR1z55clH41/f6diHz35tVjpn8WwTIboxpRhNHHJ41xhOD6mKcNsejWQO6Lt51TTLWPI4/PaAUDyyF1bHLPCiZ3HfJEiXJ/JTWcfPUH8e4J7bIZl8gRc8pgPyJ3JJBHC3eooiOOQqLfLp6adXlcI8APkYphazY3dbYSYb6j25IkQ1yZoYeyTR/uHlj5RhmWSvEy7ikMeMyfpJkAY8Kszs5NfQhHIYegUXGpaRZDGkEfGLKCH8fGdvElb3R36NK3tDjSyvPFihyhGf9fEPnn0KmjpbCzf56utww4OeawB5FjiMzqJeLKJIR6FvJodgEdNu7stYMjjnWi0N++p2CePbg4trSdhWCZJeoUKnRz4POYBodubndPTfm5q6QPyIPQ4OdS0xkkCSx5V+e/Q0ifJTBGIzXjpY03NsEy6vtqMDZ1HhXYJhNTOz/o5jibr82ME8RzEt4avaajkCjLksXY7AFqakNjETD0Ad2L+hM6f8gtC5zEBxCOJvC5ivn+Ip6DSx2UGvKY7wpLHL8dLE+Bs9rnDM0IH6juB9POelhM2j3x3CyDTZ3MR84SbA/EMZI3TBOiaTpaBIY+EtUERvLQhh+3Y5w5fAjFvsKvbIvDhb/pYPiMA6w5dfyxkFLuU7Z02QNe0/eM2ljzGRMf51xFlnzu8rn+DWPBKWHb+SVOB5nH5AN4jxdM+N8bOn7hTOhLYmtYwSWLJ4zBzI2YKCB0WYO7QxuwmYkEv0zV8uXzIQ7WyzIYodjFvlyLmySZm5vfXM38AWtNsl8GyjKdATO8fxNyhTZJZmPmejGnnPyNgHvnZWfdFFfO47PwXC1rTCZi+o8BnQ0wT8FkQc4c22a2NmbYDFGJpV/rJwPIosnh290l3PuP5pgF4ncT1A9b0JzC9j+G4mPliqX5FANHrFyfjGSyCEHO8JLn07b9AsGsL9Y/ZWQuijPkKmKW0xoWr32e7DJb63e1nw8wg9nk24UY0kDee22TMtL5App1/A+kDqDwOj90WZKeM2Q7wjKyHq+E/LASr34dnuvksFDOvQWQbzPsOPidqehOYvk3M6su2S2DyKM1o21U24f/NJlDHfNZR7Hsshw/D4/3RVYvPhlkwRParUwjQ/Bw616/FTOtVsr1a6SpB8pjT8hoz61szxPyw7Hus+wKqXwq2L6q3INRuZ53zhUhA7zv4ADg5GbrLyLTzb6PcBZHHrrwcs4uIpw0wxFyqahukm8Aec1aQ+mXr42XGpNCuYBYM0eSBUO87GHfYT2wK+I6Z1t+Gbee/IIA8qgzfMC8d66aZanAHzDFbqwGp3+mxPYDdSdRszH/MNvxIBPa5w2tDTRfu92PEtPMfvBs3PHseh8C8dHq822Rn+31E9PUxYGWNBVG/JbPpsNqEWtDGZDLcR0/u7PfFTPtOlW3P0X+tNx5rHiWojkG7MaxizpqxBjXHUY5YZiBzsNfvyWKY/OQyrBrUCLEP1wVGKRM4BDVvsKOTA9vSmUdhxpgbzO4w33GsiLkG7Be9IzP7l+BI3KowSdlYfg01LwHrDUgNawp4jlrwamdlWzqnxzgAtgxW6adnrsHbjWFkfU7W+k2U8GPA+M3n9hY1g8SzowCklCFZKeS/HfR5Mu7851yc4zLoHfGP+tMQgBo8LKOUae6drX65C7HFnKRXqMR7h7qXi7QPsSQoFTCILEBdIl8y1m/82Mg8gCXm1nYurH54MoAaZGH+8Lk7YIp5pG6uSxhjbmnngbuXJnA6sOj1jk6jPx3mEmmdYohuDNutP4bh4nAtmPVbSMVsL0gNZmHkvyGWmJONyqjvWq841YPa/hVDg8jMXIdVtN7IQoCf8HK8MqhsLRzxnqljrid5xPqo4XlgapDv1dj4/cPTx5z9xhiluQ3UDtgQIheH8w4cmRCGYabzvBzjrf993QZtzI9Gycl/s3Sel8XaWSwT0EtQurDeYd0CatoEtOJy3oEEYgxmWqfKwHjrT9SNqyrIYPxtItPGPClUDewAL8XGGrjRKEIZsx1gRaxO9mxRI8DZfM47MNeXwUzrcVhv/UmrD1OoYm5pc4JRoWRgNXi7G9QrMLGsJ6P8L94tqxH/AGrrGIGBYqDUnvwXzLRmPoH85ENSxJzzIthE/SzAGrSx38XGeidUMRfZM1b+RpfXUDMF/LUARxzOPez9fG/MdLa+XiZ+xvanvmTXMU/L44Ky0MZSstE0cDuJKV8r6WejiDlfZ2cnZqOZRGFmCgx+cG6UIiyaYKZ9FTp5zF8qM2ool89AXiCbu4U9Z+DGcx/on1z+gL1i1ufH6Bwx0wTYiSOlTMAczLzB2mZP6EXc2i73ZHUe87EyXrSWBue/wNYgjpT1+zZiy3cYlzGXZdQ9NrMR43sfUDMBa7hSV00ITmMWDLa4OcDKsjbC+e8K7JDZ9PK0sjMBXINaozi2fKP20UXM5zpwo8HMX+/8AWom8OY2caVU0V4h2W1h5g1l7vJZWVbfH5PyxwXOjvxvnim+Q4J+59Dw/we40dG6Z2Hp2LVe7kHNFPj//bKuqwBzWNEheqPYxiPm0z/g97FK6Z+1tiQM6IKytLnfBV+DisZFbHdifb9MnMWXM6/FrqvrojiSwezP2QEVBPjewSGa3AP1rUZXPC7IwN7WNC1sDkVo6ykyxZe+JNXEoQbzYcu3YvdTxPjOfPsBfKV4eh/qvhHGvkJcd5gXxFw2radOy9xWf8renxYpHK5bRXKm+Bpc3OJRgyyJWxWmPG4h4stkFg8g/caidvYFhLjuMBu4+BNpKqQiXoRKdpaVIfwZiCayG0zxLeOUudRgoUz5JvxqOLz/XzFMzT8KQOJOqSo/A7X9u3oAAZCw3o4p4D/MtG5mdYmOy1iufDI7wMuxtD9NZUEan3zz9fcxYsq3uslvYfFtQh9PMwtAkl7helAjwC9vQRBKGSTK/jnMtB0gQekCwLLutsXNKab2t3XcwasGQzLl295xm86XPy0Ef31pCGpDE8LaAnAyh4qZ1nneCR3IWNIvgVe+doDPyZLb+Uz5cjA1aGLph5o2ASMFogpsMmbatw0dVk58+RvKbvHLtwLnSzrO+fr9nxw3U+DeXAJRanfOmz/OHyDX8cmBa/t7fpltA8d8W9/v4a21rYcdALV92VmhKBUKmtEg/IxZMBhXk3w5nu2vIkjjme/epOfrzeP21u0ksglGqdiaVMdgGi4YRN8p9BD45rsmrua8PqNRG9oU0FDA6w5tk/JU1LTOOSqv9q++dKOJb74jvRpHcy7O4KYJxBQRrzv0MxtEDqOmdZExOLW/sewW73yH5CZNk0s/5AjECcjfQBKc6MB1EYIXuEupk71bLr5rTu75DsPJidSbhCD3ay8bkAKk1LwPGCknzwM0t/LiIGU1fhr/fDchhs+dXfVhEnKmwICTCyfktQc26Ls5ag4/4k8OboUi5NtWuY+HW67U/YScPiNhKUUIFyGnddV+2nEDs5Z15gLkO14GeL2+ZrwGdqbABQJTV02AZ5HzecsdFzwE9FNBMXs16Xic8z3z6fp+m4D7U5eC3c0dhcCUmunCkAsG46m2zq7LODwVtDH5z5XXdf7Oc6755xFlgWthc8hkgN23jyW/kwrKyTlpZUYu6LUz18L6FJenggastdo57KorDSnTroDON3uK8U8xA4//tcOsOY7yYZfZPsSS0ALQlCLAPo5Ql7fWKC4Dp+cCrqXd44ZGszunlg0ot22tLkhZ6AvdLa+fcZQ7LkJPE4juCH7vcDbJ1qIX9q4EBemegoKJJXXBjo6btqO2OKaicRHLeX7GUx2VeO8OoNniVIdnp4S1XvgdGyetlS53hN/tYvi9w23A3B/z6bALPzf8FXHiZEvcqvT+tOj0tOaDNb2+0HB2Yweqn774CZ92+IqdgrBtD6sOMr7gdI1ld/InKF3W0vvL7DB5zzfUMovw4kdI3BoWxe8dLrZeSk/A/sdfXq2/4EXQwR1L2O+ORAJM4AebPkrDQYCD6IDBUO3F8NM6S+dnJ9kYscncy2RCAl7s/JBQikCMkgCtd6X+xb30UtHtfV4546KgBGhCYjAaKheB2EcHXyylmTUdnx3kYdbGcp9TlgITsKsADo5vTEtIPKWDMJaapy/mJwlPe2JBKdj0n4OIUoR59rcuBT59TVLQ38fgVINyQIBf7EPMgopS5ggby4G+YBlorrgQV5dIwtD2IauHjFIfVAp0DzcbGfzTfZUEbQLH8VtD3KgP9WtkYClRMvg/elVJOMnh+O1CuFHqGg1mbyVwi9sRGfCfRvGqSwr+aCxjFI/jPQg/KhCiN4rZJA/Ef4vLn1YC/P4zk4HzCR1BXp4HEC5Ahx9byd0kcIvbxyeQAH+frxl2APz0FXE9fnRCnF9AJ7JY9gy/ETs8bprBDoCfKWAWWuqhTMAV9CWfTgJ/XlOUoDV+6xgBLaVCBU9BCP9FXvLyrIok3QSaJdFJtW7VyJZiP+9p2fC7sAVgFeEdKVCXPE8hmiXx2HmSTb0Z70tYaft9T6OJZUXoZTbksBhqSr0s6pI3srhHtUymdPjwufoXAf8njYBSj3LE00+fqFGjia+GMAk5TWjYgbcAb6rA0hCXfLIMrpZJ+Ps/jhIxvgWNuf1RYh1ednVZdsErDs91fJr4Bqh1PhtuJmANd9G8KWX8jKKdN96SvxOXy2SKqvx33d7sYhblNL7v2fD83lqSCqL/Zkqbh101RTERX0uQrBBNfM+D2lfZJu6iuVOKDDGDKfAT1pJvtetlspNap3AZX77tbXF9YmN4S9KN+0aN5z7x/SznE0XHGfVoD9LJaY2r+KJmQCv8XWX5i+ZPKRuJmkg/ozDPWl0uk4mz0sY82SdtYXPo/yTulTgZtFE5gaE+YRwpc53HsWpfU6sLLuMrWAStP3clAggIQAUMkiajLLkex/Uy6fzsxBTzVVbmZzSW3Vplb0+LuXVKoAZtVbq/LchbR/wsFf2rlT6i65gnxUoTYB9JiH7mL4Gx5FnOncM1BSmSYgXNrrxW+X8mZz7BzH4+Jl1fl3yacarx086csQZ7k8ZlzAN9NYrV+5AihNtf7+BfP0tCdHTRfjIhATzHV3Ld5m4fxdIp26oDizlnqqqDtNqSiPfUVH6uxfJA28ctXV5WzGMeD5E+YW2QqFFLn37V/XxM0s/j2V4owX7bLTSZe9W/CKgpjqnEzZkI6EnkHh5Wrpds06tzOG3ez5aGgHr6741ORU4BxfcQL6gx7fwPhOKHz6WadRg9qI1pOolQavPRDZ13e59Dcccxl+IMJr6yzIYYGXy0xIsRZlWlQqnrxMVXR/KEQsxrcCDWhe3ZoF6hQrsEHW0wjJAMddVHhcql9FtrURw2Hh4u+h9TPFrZf3QIcO8uibJelDDhK0MfJfpWiHhPi+ZRQ7WTV7joPIuneLA6AzIGiyezH7/EF2e9cA/f6TtSEBJBeGzsiBT6+hg8AC5a/zyK5yp6fVplR4UQfLWpZi5xKHEotW9oBDs5r6J5zmCB2OgUNE9VzYgJIQiPraTGAlECUYoAV2ExxziOxmmcCTZaz4Pi6av+a73CePhskkwViRIq/H92STicbZ8fI5pnDO8OHz0pzbOX54CHjfmJ9dnuR5GUQPTnMYj9j6L9Ta68qJ4wrsj9hI+eefBuHMWT1xmyYGEQfT37cTaJtERHxzYGlQkgFEH7F7R6Gt3c5iGkdXuHbTQ/u8iLBAELKMrsFZGYgCKEIxC0v73TBqofF9U6i8DIV3WYRHWV8x3Oj1z8Ghjcay81qsB0wre/yuANlf6/Uz4TRl4iKap3QL1IFPnamC4UTUAwSu3OGgVv/6/4ZlQ/LP7KKAWDTa3OUR3/VOK9Q5Cvjdml2YQb0UQTLRqlfvGixW5/I4sAKrtahtGEU7B0q+aQaGowgklA+HxtzP6ejVtMJZxo4Sj1UkOL3P5tPUyqUZFRxcXlFNW+oOj5GsSCY6l+GfFEi0epx+LTaq5XBKdqPwMr/SBUNUifVfB8bVLqKaCAgNRwpoAj4rZ6+BiqVvfxMrMDYKXviO79jycVO18bkw1ypFQIRgkMFm9FbbUdoMe7Dd2Y6AWjpfXz0J3Scm6R87VJdnu9snAsSVIqRDWL/GpBWz01nQwz46Vfh4ZlbYfA+dqYvz84aQpEb5ygrd4ruiHxVneHENN2ALorpns+kwmb73PHUlI1iYqONogsF7LVZZoNlK8RSIGWw/se0bCsVxc23xBJhkhVIOT/XxG/BmyruZ7N8yio6clS072pfW5B8zWY7F6nwWoEqVLKpg+TE8J/BWx1K9sjVKyaowTUtN5+upew/HIx87UxfzSbKBNXVEpUStnBShNgCI7fStInK4KbXgHdK5ha3h4RMl8bsy8fU1hKWEqZgP7itXo+VEf5l46cjiOZW6Z6AdvmCHnVkEI0uYG4lLhUgXcjVqtpzywm+UTI+bwt7A7R8D+7iPnaJBkvMCUupdZgAu6J1upTo/oWzugF/wANf3f3OQLmaxA9+gEEppTIKYX+pukPSrBWZy/oWtpU6AWDVL8LqdMULzeD6cuiLIwnaUqNTAjCBWv1jK6P8p9HArx1JWE0P3yuM30kXG4G8R+GhDzSppTBZILgs34vV4ImkQBfEYpfk+EtF6vJhMvNkNBS4gLPbJP0oGCtXnAXFzvnEjVqKWRA67qTMNfPhjae3RAuN4NxhsxFR2+An0pwO4K1+hj/Szonen9a3JkcaD2GK12eV2QXLTeDxfkyfyUjiL42BBcdCJE8x/cWrQ3x3bxRkzt+fZMxC8uCLk7KntG5UXKIlptB4s8FCL9rEF3YqauK1+oStb4Zzuwc6ktCTiqZlgatc966E4P1Si2sT+QULTcCDF6t+PcMwlOKEM6lWxLuJpZK3LxOT2scXoW08A8k4DkGmsD24osWn7pqQnha0sCvNUR8/8NuVzN5VaZVYSdCwNwIidUIBERPyeEqFi2MjmcUy1fZJsmLuBFg4a2iW2KeUCwm4B/zH55M8pxtm023xDygWKZ9Cclzvr0g3RLzfGI5GDdCrV8uRbJJdp1uiXk6sSzHnVCB2Y+r6Qyi/9EtMc8mls27dpwEjiVEdioR0FC6JebJxGICPxgE6bBQWEQHvhvdEvNgYiGEYSbxqmgoNFQByt9fkOcSi0kwHA+FhcOpq9ItMU8lFkJiTy48FB5KvfdF0y0xzySWffk5iChElDIJaw3tKSGEXw3xndVNUYpATPGQDG2waOC2qOFMAYc8Inpt7otSD08IXnhCTMCx4dwYpUymuU/E82GQeH3ZyAQUtjRj66S1x8MUGLA92NZBNLo0o0/Yk+Hwu+LEtw7QpRm9rjtXFIPwnGfDFDgPn2h0aQbCTl3Vk/FNR8AngDHN1ZoCgz0XpoC/vqpbwXRB+z0WmR/cTVLqmDwU+se6P06uafoReCYIcK37pNRCHtTDEOGcYd0opQhhtRfzPBCB73fdrVKKAEZ7HF7MoO9KWCms1LrO7RF/qIdBmwIHoKWwCoS9I4VngQjYWQDvvQBa0dHHbjB+8yRs+tUjPgjAK6DMETb2FDh8QTjEFGJKmQJmeQyGJhjWdcccT13VQ6BNgaPdsYjvSOEZOKTh3DalTPBChESgJ4AQviQaxnXjlPqxHoADNuQwD3IB5JQiJJa7fZowtsQuGjv1UITgqrv3WOhFY6fUjv8J984gce6q0YtGLxAdS/UqGkRD3bkLmwm/AH7R0TZJhrpxp2cSK+ARCGzSJrtt2pDDdp6B8FNXddfei6dAqfd+UO7Zco/CY6CUgWHNod2xu8zvQVBqbW7YtFfoUVC5vqzbpQlhL2n0HDln2058Z3eLAFfK4yaPm/Pt6Q/NvTIFnhxBHnt81Fxtp7Px7tSrXL08KHkIRNtkt/avdp/+aH6JUHTQxhJbl6oRYIC7dN7/wEMRUIRExQtxj45qZz0WSu3mD3CHlvZQngrHMZS5uz0HvG8FPBYRtit6LvdmqveuZCMgHUo9vAlc+GLuy0ERiIEjyEc0HfSxnNxnclMym4A5S1ASEk1HArHEUp3iBss7btj9sAjhooUoKYmmI4VYtpSAz1yMe7E113z1supvQGbleLBhpnIT/txUw4SOIG8B5WmJeAaDhEV5Qtjvh/yAg5I5AvqfQeIyIVhGgH2u5OrDeumeYPrU0tl51TSzdxsZQ8xGbpveLGTTWgXtguVdiPNtaZ/zhV5IdrEUZbRzFa3yqc/KsZfS5UnG8sZHUXStiVzHQteayHUsdK2JXMdC15rIdSxvwj8ButZErmOha03kOha61kSuY6FrTeQ6Fro2RKpjUQ==;" vertex="1" parent="1">
          <mxGeometry x="-250" y="-100" width="52" height="52" as="geometry" />
        </mxCell>
        <mxCell id="aVNAB7Wc_1VSGetC9ETK-20" value="" style="group" vertex="1" connectable="0" parent="1">
          <mxGeometry x="-220" y="3" width="180" height="52" as="geometry" />
        </mxCell>
        <mxCell id="aVNAB7Wc_1VSGetC9ETK-13" value="K8s Service&lt;br&gt;(zb. pong-lobby.ch)" style="ellipse;whiteSpace=wrap;html=1;fillColor=#f8cecc;strokeColor=#b85450;fontStyle=1" vertex="1" parent="aVNAB7Wc_1VSGetC9ETK-20">
          <mxGeometry x="30" width="150" height="52" as="geometry" />
        </mxCell>
        <mxCell id="aVNAB7Wc_1VSGetC9ETK-12" value="" style="aspect=fixed;sketch=0;html=1;dashed=0;whitespace=wrap;verticalLabelPosition=bottom;verticalAlign=top;fillColor=#2875E2;strokeColor=#ffffff;points=[[0.005,0.63,0],[0.1,0.2,0],[0.9,0.2,0],[0.5,0,0],[0.995,0.63,0],[0.72,0.99,0],[0.5,1,0],[0.28,0.99,0]];shape=mxgraph.kubernetes.icon2;kubernetesLabel=1;prIcon=svc" vertex="1" parent="aVNAB7Wc_1VSGetC9ETK-20">
          <mxGeometry y="2" width="50" height="48" as="geometry" />
        </mxCell>
        <mxCell id="aVNAB7Wc_1VSGetC9ETK-21" value="" style="group" vertex="1" connectable="0" parent="1">
          <mxGeometry x="-150" y="-70" width="140" height="48" as="geometry" />
        </mxCell>
        <mxCell id="jPVWJ0DvIGIK1T8upTcY-17" value="K8s Ingress" style="ellipse;whiteSpace=wrap;html=1;fillColor=#f8cecc;strokeColor=#b85450;fontStyle=1" parent="aVNAB7Wc_1VSGetC9ETK-21" vertex="1">
          <mxGeometry x="40" y="3" width="100" height="40" as="geometry" />
        </mxCell>
        <mxCell id="aVNAB7Wc_1VSGetC9ETK-11" value="" style="aspect=fixed;sketch=0;html=1;dashed=0;whitespace=wrap;verticalLabelPosition=bottom;verticalAlign=top;fillColor=#2875E2;strokeColor=#ffffff;points=[[0.005,0.63,0],[0.1,0.2,0],[0.9,0.2,0],[0.5,0,0],[0.995,0.63,0],[0.72,0.99,0],[0.5,1,0],[0.28,0.99,0]];shape=mxgraph.kubernetes.icon2;kubernetesLabel=1;prIcon=ing" vertex="1" parent="aVNAB7Wc_1VSGetC9ETK-21">
          <mxGeometry width="50" height="48" as="geometry" />
        </mxCell>
        <mxCell id="aVNAB7Wc_1VSGetC9ETK-22" style="rounded=0;orthogonalLoop=1;jettySize=auto;html=1;endArrow=none;endFill=0;strokeWidth=4;entryX=0.36;entryY=0.962;entryDx=0;entryDy=0;exitX=0.5;exitY=0;exitDx=0;exitDy=0;entryPerimeter=0;" edge="1" parent="1" source="aVNAB7Wc_1VSGetC9ETK-15" target="aVNAB7Wc_1VSGetC9ETK-13">
          <mxGeometry relative="1" as="geometry">
            <mxPoint x="-64" y="-18" as="sourcePoint" />
            <mxPoint x="-87" y="14" as="targetPoint" />
          </mxGeometry>
        </mxCell>
        <mxCell id="aVNAB7Wc_1VSGetC9ETK-24" value="leitet weiter" style="edgeLabel;html=1;align=center;verticalAlign=middle;resizable=0;points=[];" vertex="1" connectable="0" parent="aVNAB7Wc_1VSGetC9ETK-22">
          <mxGeometry x="0.2142" y="2" relative="1" as="geometry">
            <mxPoint x="-3" as="offset" />
          </mxGeometry>
        </mxCell>
        <mxCell id="aVNAB7Wc_1VSGetC9ETK-25" value="" style="group" vertex="1" connectable="0" parent="1">
          <mxGeometry x="-30" y="3" width="180" height="52" as="geometry" />
        </mxCell>
        <mxCell id="aVNAB7Wc_1VSGetC9ETK-26" value="K8s Service&lt;br&gt;(zb. PongRooms)" style="ellipse;whiteSpace=wrap;html=1;fillColor=#f8cecc;strokeColor=#b85450;fontStyle=1" vertex="1" parent="aVNAB7Wc_1VSGetC9ETK-25">
          <mxGeometry x="30" width="150" height="52" as="geometry" />
        </mxCell>
        <mxCell id="aVNAB7Wc_1VSGetC9ETK-27" value="" style="aspect=fixed;sketch=0;html=1;dashed=0;whitespace=wrap;verticalLabelPosition=bottom;verticalAlign=top;fillColor=#2875E2;strokeColor=#ffffff;points=[[0.005,0.63,0],[0.1,0.2,0],[0.9,0.2,0],[0.5,0,0],[0.995,0.63,0],[0.72,0.99,0],[0.5,1,0],[0.28,0.99,0]];shape=mxgraph.kubernetes.icon2;kubernetesLabel=1;prIcon=svc" vertex="1" parent="aVNAB7Wc_1VSGetC9ETK-25">
          <mxGeometry y="2" width="50" height="48" as="geometry" />
        </mxCell>
        <mxCell id="aVNAB7Wc_1VSGetC9ETK-28" value="" style="group" vertex="1" connectable="0" parent="1">
          <mxGeometry y="68" width="150" height="125" as="geometry" />
        </mxCell>
        <mxCell id="aVNAB7Wc_1VSGetC9ETK-2" value="&lt;div&gt;GameRoom Pods&lt;br&gt;&lt;/div&gt;" style="rounded=0;whiteSpace=wrap;html=1;align=left;verticalAlign=top;" vertex="1" parent="aVNAB7Wc_1VSGetC9ETK-28">
          <mxGeometry y="25" width="150" height="100" as="geometry" />
        </mxCell>
        <mxCell id="aVNAB7Wc_1VSGetC9ETK-3" value="GameRoom Container" style="rounded=1;whiteSpace=wrap;html=1;" vertex="1" parent="aVNAB7Wc_1VSGetC9ETK-28">
          <mxGeometry x="10" y="54" width="130" height="30" as="geometry" />
        </mxCell>
        <mxCell id="aVNAB7Wc_1VSGetC9ETK-4" value="evtl. DB" style="rounded=1;whiteSpace=wrap;html=1;" vertex="1" parent="aVNAB7Wc_1VSGetC9ETK-28">
          <mxGeometry x="10" y="84" width="130" height="30" as="geometry" />
        </mxCell>
        <mxCell id="aVNAB7Wc_1VSGetC9ETK-14" value="" style="aspect=fixed;sketch=0;html=1;dashed=0;whitespace=wrap;verticalLabelPosition=bottom;verticalAlign=top;fillColor=#2875E2;strokeColor=#ffffff;points=[[0.005,0.63,0],[0.1,0.2,0],[0.9,0.2,0],[0.5,0,0],[0.995,0.63,0],[0.72,0.99,0],[0.5,1,0],[0.28,0.99,0]];shape=mxgraph.kubernetes.icon2;kubernetesLabel=1;prIcon=pod" vertex="1" parent="aVNAB7Wc_1VSGetC9ETK-28">
          <mxGeometry x="100" width="50" height="48" as="geometry" />
        </mxCell>
        <mxCell id="aVNAB7Wc_1VSGetC9ETK-29" value="" style="group" vertex="1" connectable="0" parent="1">
          <mxGeometry x="-230" y="68" width="160" height="124" as="geometry" />
        </mxCell>
        <mxCell id="aVNAB7Wc_1VSGetC9ETK-15" value="&lt;div&gt;GameLobby Pod&lt;br&gt;&lt;/div&gt;" style="rounded=0;whiteSpace=wrap;html=1;align=right;verticalAlign=top;" vertex="1" parent="aVNAB7Wc_1VSGetC9ETK-29">
          <mxGeometry x="10" y="24" width="150" height="100" as="geometry" />
        </mxCell>
        <mxCell id="aVNAB7Wc_1VSGetC9ETK-16" value="GameLobby Container" style="rounded=1;whiteSpace=wrap;html=1;" vertex="1" parent="aVNAB7Wc_1VSGetC9ETK-29">
          <mxGeometry x="20" y="54" width="130" height="30" as="geometry" />
        </mxCell>
        <mxCell id="aVNAB7Wc_1VSGetC9ETK-17" value="evtl. DB" style="rounded=1;whiteSpace=wrap;html=1;" vertex="1" parent="aVNAB7Wc_1VSGetC9ETK-29">
          <mxGeometry x="20" y="84" width="130" height="30" as="geometry" />
        </mxCell>
        <mxCell id="aVNAB7Wc_1VSGetC9ETK-18" value="" style="aspect=fixed;sketch=0;html=1;dashed=0;whitespace=wrap;verticalLabelPosition=bottom;verticalAlign=top;fillColor=#2875E2;strokeColor=#ffffff;points=[[0.005,0.63,0],[0.1,0.2,0],[0.9,0.2,0],[0.5,0,0],[0.995,0.63,0],[0.72,0.99,0],[0.5,1,0],[0.28,0.99,0]];shape=mxgraph.kubernetes.icon2;kubernetesLabel=1;prIcon=pod" vertex="1" parent="aVNAB7Wc_1VSGetC9ETK-29">
          <mxGeometry width="50" height="48" as="geometry" />
        </mxCell>
        <mxCell id="aVNAB7Wc_1VSGetC9ETK-30" style="rounded=0;orthogonalLoop=1;jettySize=auto;html=1;strokeColor=#0000FF;endArrow=none;endFill=0;" edge="1" parent="1" source="aVNAB7Wc_1VSGetC9ETK-15" target="aVNAB7Wc_1VSGetC9ETK-26">
          <mxGeometry relative="1" as="geometry" />
        </mxCell>
        <mxCell id="aVNAB7Wc_1VSGetC9ETK-31" value="skaliert automatisch" style="edgeLabel;html=1;align=center;verticalAlign=middle;resizable=0;points=[];" vertex="1" connectable="0" parent="aVNAB7Wc_1VSGetC9ETK-30">
          <mxGeometry x="-0.3545" y="-3" relative="1" as="geometry">
            <mxPoint x="16" y="-14" as="offset" />
          </mxGeometry>
        </mxCell>
        <mxCell id="aVNAB7Wc_1VSGetC9ETK-32" style="rounded=0;orthogonalLoop=1;jettySize=auto;html=1;endArrow=none;endFill=0;strokeWidth=4;entryX=0;entryY=0.5;entryDx=0;entryDy=0;exitX=1;exitY=0.5;exitDx=0;exitDy=0;" edge="1" parent="1" source="aVNAB7Wc_1VSGetC9ETK-15" target="aVNAB7Wc_1VSGetC9ETK-2">
          <mxGeometry relative="1" as="geometry">
            <mxPoint x="-135" y="102" as="sourcePoint" />
            <mxPoint x="-126" y="63" as="targetPoint" />
          </mxGeometry>
        </mxCell>
        <mxCell id="aVNAB7Wc_1VSGetC9ETK-33" value="leitet weiter" style="edgeLabel;html=1;align=center;verticalAlign=middle;resizable=0;points=[];" vertex="1" connectable="0" parent="aVNAB7Wc_1VSGetC9ETK-32">
          <mxGeometry x="0.2142" y="2" relative="1" as="geometry">
            <mxPoint x="-13" y="2" as="offset" />
          </mxGeometry>
        </mxCell>
        <mxCell id="aVNAB7Wc_1VSGetC9ETK-34" style="edgeStyle=orthogonalEdgeStyle;rounded=0;orthogonalLoop=1;jettySize=auto;html=1;entryX=0.5;entryY=0;entryDx=0;entryDy=0;endArrow=none;endFill=0;strokeWidth=3;" edge="1" parent="1" source="aVNAB7Wc_1VSGetC9ETK-26" target="aVNAB7Wc_1VSGetC9ETK-2">
          <mxGeometry relative="1" as="geometry" />
        </mxCell>
        <mxCell id="aVNAB7Wc_1VSGetC9ETK-35" value="erstellt" style="edgeLabel;html=1;align=center;verticalAlign=middle;resizable=0;points=[];" vertex="1" connectable="0" parent="aVNAB7Wc_1VSGetC9ETK-34">
          <mxGeometry x="-0.1905" y="-4" relative="1" as="geometry">
            <mxPoint as="offset" />
          </mxGeometry>
        </mxCell>
        <mxCell id="aVNAB7Wc_1VSGetC9ETK-37" value="&lt;div&gt;&lt;br&gt;&lt;/div&gt;&lt;div&gt;&lt;br&gt;&lt;/div&gt;&lt;div&gt;GitHub&lt;/div&gt;" style="ellipse;shape=cloud;whiteSpace=wrap;html=1;fillColor=#dae8fc;strokeColor=#6c8ebf;verticalAlign=top;labelPosition=center;verticalLabelPosition=middle;align=center;" vertex="1" parent="1">
          <mxGeometry x="-170" y="250" width="280" height="160" as="geometry" />
        </mxCell>
        <mxCell id="aVNAB7Wc_1VSGetC9ETK-39" value="" style="group" vertex="1" connectable="0" parent="1">
          <mxGeometry x="-110" y="310" width="180" height="60" as="geometry" />
        </mxCell>
        <mxCell id="aVNAB7Wc_1VSGetC9ETK-36" value="&amp;nbsp;&amp;nbsp;&amp;nbsp;&amp;nbsp;&amp;nbsp;&amp;nbsp;&amp;nbsp;&amp;nbsp;&amp;nbsp;&amp;nbsp;&amp;nbsp;&amp;nbsp;&amp;nbsp; GHCR&lt;div&gt;&amp;nbsp;&amp;nbsp;&amp;nbsp;&amp;nbsp;&amp;nbsp;&amp;nbsp;&amp;nbsp;&amp;nbsp;&amp;nbsp;&amp;nbsp;&amp;nbsp;&amp;nbsp; &amp;nbsp; &amp;nbsp; &amp;nbsp; &amp;nbsp; &amp;nbsp; &amp;nbsp; (GitHub Container&amp;nbsp;&lt;/div&gt;&lt;div&gt;&amp;nbsp;&amp;nbsp;&amp;nbsp;&amp;nbsp;&amp;nbsp;&amp;nbsp;&amp;nbsp;&amp;nbsp;&amp;nbsp;&amp;nbsp;&amp;nbsp;&amp;nbsp;&amp;nbsp; Registry)&lt;/div&gt;" style="rounded=0;whiteSpace=wrap;html=1;verticalAlign=top;align=center;" vertex="1" parent="aVNAB7Wc_1VSGetC9ETK-39">
          <mxGeometry width="180" height="60" as="geometry" />
        </mxCell>
        <mxCell id="aVNAB7Wc_1VSGetC9ETK-38" value="" style="shape=image;verticalLabelPosition=bottom;labelBackgroundColor=default;verticalAlign=top;aspect=fixed;imageAspect=0;image=data:image/png,iVBORw0KGgoAAAANSUhEUgAABLMAAAJ5CAYAAABVIXKKAAAACXBIWXMAAAsSAAALEgHS3X78AAAgAElEQVR4nOzdfZBld3kf+Kfv7e550czoZdAMoBnJlpgRkiWktUV4X6c8oKwB/xEgLDhriFRZArubMhVD1VYStLacpGpjnIXaqphQW5JfEvAShCsVS6kVyOuEF4FRWASKBCNQLI1k0MvoZUaat+57e+u5p293z9x+79v3nnPu56O6NZpze7pvn9N97z3f8zzPb2xmZiYAAAAAoArGZx/j34mIn3HEAAAAACipP8/bwjDrFx0pAAAAAErszxuODgAAAABVIcwCAAAAoDKEWQAAAABUhjALAAAAgMoQZgEAAABQGcIsAAAAACpDmAUAAABAZQizAAAAAKgMYRYAAAAAlSHMAgAAAKAyhFkAAAAAVIYwCwAAAIDKEGYBAAAAUBnCLAAAAAAqQ5gFAAAAQGUIswAAAACoDGEWAAAAAJUhzAIAAACgMoRZAAAAAFSGMAsAAACAyhBmAQAAAFAZwiwAAAAAKkOYBQAAAEBlCLMAAAAAqAxhFgAAAACVIcwCAAAAoDKEWQAAAABUhjALAAAAgMoQZgEAAABQGcIsAAAAACpDmAUAAABAZQizAAAAAKgMYRYAAAAAlSHMAgAAAKAyhFkAAAAAVIYwCwAAAIDKEGYBAAAAUBnCLAAAAAAqQ5gFAAAAQGUIswAAAACoDGEWAAAAAJUhzAIAAACgMoRZAAAAAFSGMAsAAACAyhBmAQAAAFAZwiwAAAAAKkOYBQAAAEBlCLMAAAAAqAxhFgAAAACVIcwCAAAAoDKEWQAAAABUhjALAAAAgMoQZgEAAABQGcIsAAAAACpDmAUAAABAZQizAAAAAKgMYRYAAAAAlSHMAgAAAKAyhFkAAAAAVIYwCwAAAIDKEGYBAAAAUBnCLAAAAAAqQ5gFAAAAQGUIswAAAACoDGEWAAAAAJUhzAIAAACgMoRZAAAAAFSGMAsAAACAyhBmAQAAAFAZwiwAAAAAKkOYBQAAAEBlCLMAAAAAqAxhFgAAAACVIcwCAAAAoDKEWQAAAABUhjALAAAAgMoQZgEAAABQGcIsAAAAACpDmAUAAABAZQizAAAAAKgMYRYAAAAAlSHMAgAAAKAyhFmwTsdORzxxLOK5kxGttr0IAABl9sxLDg/UxbgjCWtzYiri8DMRZ1pn/7NLdhU3AACgXB59PuLJFyNemoq47AIHB6pOZRasQQZZP3iqN8hKWaX10+M9mwEAgCG7+LyIyWbxJ1B9wixYgwyspmeW/vi/OtazCQAAGLLtExHXv6L4E6g+bYYMVfat//TFiKsujmhWIFo9fqpn01ky6MpZWru29NwFDFD+Hj74ZMSDT0Ucm/29/eZjZ3/9q/fO/67u2hpx9Z75PwHKovs89vgLxa3r3Oe011969vPZwuc4AKgbYRZDlUFWtu7lieeF28p/LJarygLKIZ9PrvvUyg/lW0d6Ns3J+Xf7zi9ODvOEME8M8+8AmyWDqgyuMojPoCr//sQaKr4Xe0776oc9dwFQT8IshiorsqoSZMVseXKGb8vZ0lzmTmDTffH7G/8KeQKZt4Unhzu3FOFW96aCC9iIDK4ytMpbBlhrCa5WK58PP/pmhwmA+hFmMVTZWliVICu9fEfEI8/1bJ6TJ7tb/FbBUPUjzFrM8dMRX364uMWCcOvGA8Wfqh+A5eTFu7sPF+HV3Q8XzymbTZgFQF057YY1eNl5xZvRZ070/pus2jq4u2czMEBZ6fDQU4P5eueGW1ftiXjPtaq2gHnZKpjBVYZKg3puWiirvTI8687TYvVOnWjF6ZOtOH/3pL0GUELCLFijyy8qBqo+dypiul382/x7Vm1VYYg91NlmVWWtRp6o/vY9xQfmzK0MtvKmYgtGy7ADrHPl4xBmrc6jh4/H4e8+H4/+8Hg8+fjJzr+59ODO+LXfOFj+Bw8wYoRZsA5ZoZU3oFyyhacMshri018vbt2KrbxZWQzqqdtCmMHRYoPYh+nuh/3QLeXJIyfi0cMvdsKrw/c/v+hHPXb4ePzwu8/Hlddf0HMfAMMjzAKgFrLFcDMGKG9Ut2Irb287UIRaOWcLqL5s4csAa1AzsNYjH1c+Ps87ES8cPdMJrh6dDaiyjXA1MtASZgGUizALgFoYZovhanVnbHXbEG9+rWotqJqswsrnm9u+Xc4AfTFZNTaKYVbOvcrgqltdlWHWemQABkC5CLMAqIWytBiuxsI2xHdfMz84HiivnIX1qa+VuwprKaPUapjhVadt8LvPz8292qj8PBmMbd3eHOa3BsACwiwAKq+sLYarcccDxe11++dnawHlka2EGWKVbRbWWtS51TBDpu/de3SufXC1rYNrleHYa95o2WqAshBmAVRA+4Un48yPvhHTT/042seeXPYBj205L5p7rojJV70xxvdc0XN/HVWhxXAleaKctzxp/uibI248qAURhimfV/L3sapB+bnq2mr4b3/vx502ws2WQZkwC6A8hFkAJTZz+sV46c8+E6f/y5fX9iB/dG+c/Ma/jon9r4ltb/y1zp91lpUTdZEnzh+/K+LWeyJuvsFcLRi0uoVYXXVtNRxEkBWzYRYA5dFwLADKaerI9+K5z35g7UHWAvk5jv3fH+8EYnWVc2xyxcC6ybagnKn15t8rTqyPVWxGD1RJ/n7l71n+vmWYXLcgK2afUx6s4XPl+bsne7Zthhwev94B8gD0nzALoISypTBDqJnTL/XlwZ36zp/Ei//hkz3b66BOVVmLEWrB5lkYYuXvWR1DrIWqtFDGal12cOfAvlauiAhAOQizAEom52NtRvCUFV6n/vOf9GyvulFZpUuoBf2V7YRvv634vara6oTrVcfny4PXX9CzbbPkkHkAykGYBVAyJ77xR32ryDpX8blf7NleZXWvzDrXuaEWsDYZYtW5nXA52ZJdtyB8kJVZ5mYBlIcwC6BEsiprIzOyVpIh2ckaVWfl/JdRqag418JQqw6rOcJmy+B7VEOshep2AWDr9mbs3betZ/tmOH2yJdACKAlhFkCJ5KyszTb18OZ/jUEZtaqsxXRXP8yTdPsDeuXvxfs+F/H+z492iNVVx+cJrYYAo0eYBVAigwizpp9+pGdbVQlv5uVJep6s50l7rvAIoy5/Dz52Z/F78a0jo7435tXxefOyKwfZalivVn2AqhJmAYygqSPfq8U3LczqlSftb/lMxK33GBLPaOquUPj22yPueMAPwbnMzdqYxw4fj1MnWgP7etAvrXbEw0cjTkzZpdSDMAuAShrleVmrcft9RevhbfeV/7FCv+RqfaO2QuF6PPhk9R7zSg5eN8BWQ3OzqKCnX4p47mTEo887etTDuOMIQBXV8WSs3/Jk/rfvKQbE33Io4vWX1uv767cMSI+dmv+k5/69q58VgVfvjdi15extu7ZGXL3n7G2O3fLyWN36Fe2Eq5U/w3X7mcpWw8P3D+YsPauzrhzgnC7oh5fvjGjNRLx8h91JPQizAKikPHlldbKtKOcGve1AxCff0Rue1FXOTOrOD+sGUNle1Q1C8/8fGvLP0XrCl0t2Rew7v/j//LP7/91wYuG2uuu2FN6uAnFN6vj8ednBwZ2hGwJPVeXrB9SFMAuASlKZtXZffrhoPfzomyNuvqFqj75Xt3KqG1R1/173FtQc9t9dlW9hGJatdQvt3DJf4dUNus79s8qypTAHvGsnXLs6zhvcu397bNnWjNMnN3+e1ZOPn4wXjp6J83dP9twHwGAIswCoJO1E67Ow9TCrtM5tZyubhYFVt6oqq626YQ5Ly2Pd/T3p/rkw8OqGXd1Krmx57PxZ8p+J7iqFngPWL3828vepblWa2fr3vXuP9mzfDFmd9Zo37h70twjALGEWAJWjxXDjsr3uHbdH3HRDUak17JPaDCjyuGZYlX/m34fdAlh33bBrsVDoqj3zwVaZQq5sKcxFDVRjbVz+rtVubtbBnYMLsw4LswCGSZgFQOV05yCxcTlr6O7DEbe8NeLGA4PZoQtDq/xzsTCF4cogMW/ZmrrQ6/bPV3FluDWoMCR/VrIaS8DZP3UdAj8oVjQEGC5hFsAIau7aW+lv2rys/sqWvb/3pc0ZEC+4qpduJdcdD8x/W1nF1a3gynCknxVcBrxvnjpeFMgZVnnLeVab7dSJzZ/NBcDShFkAJdIYUMjUOL/iYZbqjE3RHRCfgdZ6q7Sy2qN7q/sgdgrdKq6FAVdWcHWCrdmAaz0Baf4MZTWW+Wibo64Vrjk36y/u2fwXiRvfu79nGwCDI8wCKJGJ/a+J0//ly5v6gCZf9YaebVWjzXDzZPjUrdK65VDRUraUrJpZGF5pAaPr3FlcV822JHZvy4VbqrEGo65Vkpce3LkpYVZWfOVMrrwdvP6C2Lq92fMxAAyOMAugRLZcc2O89P9+JmZOv7RpD2rrL7yrZ1vVCE02X1ZpZUCVgdZ7rp3/crnt7oeFV6xNt3qrG1AtFW6pxhqsOq5omGFTP2zZ1izCqyt3dqq9MswCoDyEWQAls/2Nv9YJtDZDVn7lrcqOaVsbmKzS+vhdRXgV0TsMHNZrsXArZ20tbFVk89VxRcOsmMrqrMfWMaD90k7l1Y5OeLV3//ae+wEoD2EWQMls/YW/GVNH7o8zP7q3rw9sbMt5seO/+1jP9qox/H3whFhstm64xWDV9eJABlKrCbP27tvWqby6dLZ9UOsgQHUIswBKaMcvfyyO/fHHY/rpR/ry4DLI2vXf/07lB7+HyiyAvsmLA+td7KHMsrLqq3/6k55HuOuiybj0wI742Vfv6oRYWgcBqkuYBVBCY1t2xPkf/L146c8+E6e+8ycbeoDjF18e5/3yx2J8zxU991WRyiwAlpMtgr/ywZ+J++89Gltz9tWVO+OVl2+NPZdsi+Z4M5qNxjL/GoAqEGYBlNh5v/Th2PYLfzNOfOOP4syPvrGmwfDjl78+Jg+8MbZd+zd67gOAB2vc2vmaN+7u3FK73Y7p6Vbn/wVZAPUgzAIouWwNzLbDNP3Uj1cVaDVe+XPRarVjrDHWc1/VPf6Cn1iAfjh2ajR2Y6vd7vzZbAqyAOpCmAVQIWtpFcwwa6Y9EzMzMzE2Vp9QS5gFwGrla2C+FqaGqiyA2vCMDlBT3TftGWoBwLm+daRnU+10XwPzNbFOF3YARp0wC6Cmuu0U7bYwC4DR1NZiCFBLntUBaiqvQHevQrdardp8k6NQSQDAxs1VJo+FqiyAmhFmAdRYY/ZKdEt1FgAjptWeXcGw2XToAWrGAHiAGsslyFvRipgpAi1LkgNQV8dORzxxLOL46egMfR+LRuzeNhM/s9trH0DdeGYHqDmzswBYyjcfW+KOinnuZMQPni6CrJhdxTC7DJ8+2YiHno6wFgpAvQizAGquu6phXqXON/cAUDePPr/gG5qZf71rjI3FiamIn77okAPUiTALoOZy6G030Gq5NA1AzWR74ZkF65y0Z4OsztD32cHvWbkFQH0IswBGgFZDAEZFViJHpzJ5fgXDrM4CoD6EWQAjIK9Od5clV50FQF11g6wYi7mqrLR9wiEHqBNhFsCIaMxWZ3WXKgeAOti1JWJ8NrdqzxQXbBpjZ5/mXLjNoQaoE2EWwIhozs7NihnthgDUy89eVAx+j25hVuPsqqyX73DAAepEmAUwQppz1VnCLAAiXn9pPXZCVl5dfmErJpszZwVZL9secdXFeUGn558AUGHjDh7A6MhVDXNmVs4UyWXLxxbMEwGAqsrXtF2TM3Ht3oj22FicaRfthwDUk2sUACMkw6vGbLthVQfB73RyAsA5uhXHWZW1dWJMkAVQc8IsgBHTbTWs6tysq/f0bAJgxLVnL9DMzYcEoNY82wOMmE5r4Wx3YVWrswDYuLpUus7NgRyLuepjAOrNsz3ACGo2m51vutVuOfwAI6oula7zVVnNnvsAqCdhFsAImmvDmCmG5lbJ1Xv9xAJQyNew7utY05KFACPDaoYAm+CZlyKePjH/eXMQ7ct3lGtp8Eaz0bma3Wq1Yny8Oi8HhvoC9Me+86u/I7vt8toLAUaLMAugzx56OuL46bM/Z/79uZMRV11cnkArq7MyzGq3i6vanVlaFbBrayUeJkDpVT3Myteu7mImqrIARotnfSDyouYjzxZ/sjFPHOsNsrpOTEU8+nzP5qHJ8KrRKAKsVoVWNrSaIUB/VP3iQDfIGmuMVeaCDAD9IcwCOgHLMyfKFbRU1dMvLf/Acz+XKTTsDoJvVyjJVJkF0B9VvzjQmhv87pQGYNRoMwTisguKfdD9k/U7s4rFAV+aKs/cp86V7LFiEHxWZ1XhhEBlFkB/VPniwFxF8Zh5WQCjyDM/0JnhdPlF5RpOXmfjJdvP3eqsHARfFZfsqsxDBSitKl8caM9VZTV77gOg/py6AvTRzhUqriabEdsnejYP1Vw11kzMLW9ednVYgQtgmK6qcJCVr1Xd1yuD3wFGk2d/gD5aqVWzrK2cjdmTgapUZ73+0p5NAKxBlS8KdGdlaS8EGF1eAQD6KKuuDuyOGD9nUaX8++UXRly4rZx7u1ud1W7PVKI6S2UWwMZUtcUwX6O6qxiqygIYXQbAA/RZBlYXXhJx7HTEiTMR2ycjzpso90yyHASfS5vPtGc6Q3XHm+WeQXL13p5NAIzA82g3yMrXrM4iJgCMJGEWwCbJFQvLsmrhamR11nS7VQzVLXuYZUVDgA2p6vNodxVDLYYAo82rAAAdnROD2Yvcc0uel9jr9jtuAOuRi5VUsV2789qUnfBjCxYvAWAkeRUAYE53ifPukudlptUQYH2quojG3KwsQRYj7JmXIh54MsNdPwWMNq8EAMzpDtNduOx5WVnREGB9qvj82XldahevS82St8LDZvrpixEnporZrDDKzMwC4CzZbphXv6empjvhVllPGoRZAOtTtefPVqsdrVar8/9mZTHqrrq4CLLKukI2DIpXAwDOMj7e7KwSFbMnEBlqlbFKK4frX2UQPMCa5Lysqgx/z9eefA3qBln52tQs89LAMAD5KyDIAmEWAIuYGB+P5nhRkdU9mZiePZkoE9VZAGtTlefNfM1ZeDElq4TztWlsbKznYwEYPdoMZ2Wp5pMvRhw/Vfx959aIvTuqtaw+QD/lgN3mZCOmp1udtsMcCn+m1e5UbpWlzSNPym6/r2czAEsoe5iVrzediyezBcGNxliMjztlAeBsXhlmV4R45Lmztz13srhdfmHEy87r+ScAIyPDq5mZRkxNT3dOLjLcGmu0Y7zZHPoV8hsPFC0zxw1BBViVfN4so6zAynbC9uyQ9xgLlVgALGnk2wxPT/cGWQs99rxlT1mfR58vVhqBOsiTicmJifnVDttnzzEZJq2GAKuTcwb3nV++ndWabSlsz61W2Oi85giyAFjKyIdZubTpcqZnIp5+aZkPgEVktV+2rR5+pvc+qLLOzJKJ8bMGxJ+ZmhrqgPiyVhkAlM17ri3XA5of8F5cOc7XlnyNKesqugCUx8iHWaupnGmVbxEvSi5bU3Pm2sGXOVLUT14pXzggPlsPOwPip4dTpXXjwZ5NACyiTOF/z4D3cQPeAVi9kQ+ztrjwwya57IKI7RP2LvWVA+InJyeiMdt6mEN7z5yZilZ7sL3ZuVDHu6/p2QzAAmVpMey+VrRnq7Eas68lzZIsLAJANYz8q8ZqVivcaUVDgCWNd1sPZ6+mt6ZbnWHxg2w9VJ0FsLybb1j27k3XaSmcXlDFmwPeJ8Y7i4wAwFqNfJiV7WDLVc9cuG11gRdUSc70euJYxDErwNEnndbDzpyT4QyIL+NAY4AyGebzZHfA+4wB7wD0yciHWemqi4vQ6lw58+jyC3s2Q6XlKou5gmeGWT94ugi2oF+GMSA+Q9mP3dmzGYAFPvSliAefGuweMeAdgM0ybs/m3JeIA7sjTk9HnJ4tIshZWlvsHWro6Dnh1dMnigrF9cowLMOEyy/y00KhOyA+56J02klmB8TnXJR+t5Pkz977Phfx0IBP0ACq5vjpiA/dEXHXzYPpOsjn//aCGYo54N1cLAD6xSvKAhle5Yt73gRZ1FU/30fmhdbHno945sTqVgZltDSWGhDf6t+A+Fu/IsgCWK2sys4LAJs5ZqDVHfDeNuAdgM3jVQVGzL5d89/v+FjEJbvW//1nRvHqPUVl43Kz5xhtPQPiW/0ZEH/rPRF3PNCzGYBl5AWAvBDQb90B763ZAe/dWYoGvAOwGdQfwYjJlsJcoTNbas+bKAKpjcgQS5DFSronNVmVlWFWZ0B8e7ozBHg9s1O++P2I2+/r2QzAKuSFgBwI/9E392dv5fP6wqrb9T63A8BqqcyCEdRtqd1okAVrlSc4GWo1NjAgPgcYf/yuns0ArMGnvx5x98Mb22P53J3P4Qa8AzBoTmUBGKis0hofn209yUxrdkD89PT0ig+jO/AdgI3LlWDXu8JhDnjP5+6YvRaRz+m5+Ee3pRyq6KfHi5mwQPkJswAYis5Q4ImFA+JnVhwQnytxHd/EwcUAoySfTzPQWstA+J4B783ZxT4MeKficoGEx16IeOQ5RxKqwMwsoO+Onjkah4//sPPn4yeOxInWyVV9if3b98e25rY4uOPKOLjzYM/91FMOiJ9pNDpX+bNlJWevtGfane0Lr/B/6msR3zrihwCgn3IgfAZan33X8p80n5+nZ2cexlyVbVMlFqU0c+aJmDn14xjbekWMTV6yqof48h1FsLuRxZGAwRmbnVPy5xHxi/Y7sBH3Hv1G/NlT98TjJx/f8H7MUOu6C66Pd77iV2L35O6e+6mn7oD4rrzin6HWNx+LeP/nHXSAzfKJQxE337D4JzfgnbKbmX62E17NnHwg2qd+FNE+NfeIm7vfF40dr3UMoT5+KyJ+U2UWsGGHjx+OP3j09+PZM0f7tjNPtk7GN4/e27n90p5D8c5XvDO2Nbf3fBz1kidIORy+U53Vnol2qx3PnGzHh75kyUyAzZTVr6+/NOLqPfNfJC96T03Pz8XK5+dmUzUWJdA+Ge3Z8Grm1I9iZnrp3sD28f8kzIIaEmYBG/JvH/9CpxprM+Xn/+7z342PXPGR2LdtvwNWc90B8d2TqP/5342bkwWwybrzs+66qfg6uShHe7alMBfryCpZc7EYpqy8ap/4fsyc/nHMnPmrVT+Szse2T0Y0tvXcB1SXVyRg3bIaa7ODrK6s+voXh383Hj9paNKoyFDrX98/EX/xuAoAgEHI+Vm/9eWZ2QHvRZDVGfA+YcA7g5dzr9rH/lO0nr49ph79jZh+8l9G+/hX1xRkdWUVF1AvKrOAdcmKrGwBHKRsPcxA6x8c/A0VWiPg8ReKthcABuf3vzMWh64Yi9ftDwPeGai5uVeniwqshXOvNirbEWP7NQ4o1IgwC1iz+5//7sAqss6VgdYf/OXvxz+66hM991Ev2e6ivRBg8P7X/2c87ro5Ypcci83UnXuVM69y9tUyc682Kr8GUC/CLGBNTrZOxBce/8JQd1qulvinP/n3nZUOqafb7ov4lo5SgKF44lhRGXvLIfuf/urMvcrwKudeDbD1L4OyrPwaG7+o5z6gmoRZwJrce/Tevq5auF5ZGXZozyErHNaQ9kKA4bv9vogbDxQrHMJ65dyrudbBrI7qY+vgWuXjGNshzIK6MMkRWJN7htReeK5sN8wVDqkf7YUA5XBrOV7yqaD2i9+O6Sf+SUz/5F9E67l/F+0TDww1yIru3CygNoRZwKrlSoJlqMrqul+YVTt3P6y9EKAscnVDlbKsVbbztY7+8abOwFqPtrlZUCvCLGDVylYJdf8L9/dso7qOnY649SsOIECZ5AzDbP+GVStZiDWnfarT9gjUgzALWLWjJarK6spqMerhtm8XQ4cBKI9s+1adxVqMbb2itPur0+4I1IIwC1i1o6fLF2admD7Zs43qyav+efUfgPK544GIbz7mwLB6je3XlHJv5SB6oB6EWQAMXV71N/QdoLxUZ7EWY1vKWZ2VKxoC9SDMAmCo8mr/Har+AUotF+f44vcdI1ZHqyGw2YRZAAyVq/0A1eD5mtUam7wkorG1lPtrxqqGUAvCLACGJquyvmWGP0Al5CIdqrNYrcb2a0u5r8zNgnoQZgGl02jtjohxB2YEuMoPUC2et1mt0s7NOvNXEW0LCEHVCbOAUskga2Lq6pg8/RoHpuZUZQFUj+osVsvcLGAzCbOAUmk3X4iZsZdievwJB6bmXN0HqCbP36zG2PhFMTb5ylLuK62GUH3CLKBkpuPMlu9Eu/mkA1NjqrIAqkt1FqtV2lZDQ+Ch8oRZAAzcbffZ5wBVpjqL1Rjb+qpS7qeZ6ediZvrZnu1AdQizABiox1+I+PLD9jlAlWV1VlbZwnIaJZ6bNWNuFlSaMAuAgXI1H6AePJ+zosa20g6CNzcLqk2YRW0981LEI6qH+2r/9v2le0y7t+zu2UZ5HTsdcbeqLIBayNmHWW0Lyynr3Ky2uVlQacIsauux5yOeOVGcPNMfuyfLFRxta24r3WNieTkw+LjfSYDaMAORlTRKOjcr2qdi5pTqLKgqYRa19eo9EQd2R+za4hj3y3UXXF+qx3Nwx8GebZTbbd92gADqxKqGrKTTZtjYusJHDYfqLKguYRa1tX0i4sJtjm8/ZRXUgRIFSG/Y/caebZRXDgrOgcEA1EdW2wq0WEyr3Y7p6ek4c2YqYvLyRT5i+MzNguoSZgFr8obdbyjFDrto4qL4uZ3X9mynvJzsANST53e6FgZYrelWtNszxT0lnZvVaTNsn+zZDpSfMAtYk6yGKkN11rte8Z5ot9rFm6VWu+d+ysXgd4D6Mgh+tC0VYI2NjUWz2YyJifEY336gtPuobW4WVJIwC1iz9+5/b2f4+rBcd/518fO7f77zJim1Wq2YmpqOmZkZB7Ok7j5s8DtAnblgMVpWE2DlrdlsdLaNTV4SY+MXlnIfzZibBZUkzALWbN+2/fG39r13KDtu37Z98cGf+TudN0bFm6RmZ3sGWRloTU+3er/dsQQAACAASURBVP4Nw+ckB6DeLPBRf2sNsM41VtJVDc3NgmoSZgHrku2GH7jsgwPdeRlk/YODvxHbmtvntuUbpsnJiWg0iqezdrvbeijUKotsMfyyMAug1nKBjwefcozrZqMB1kJjZZ2bdeavYmb62Z7tQLkJs4B1y0Drw5d/ZCAth9laeG6QtdD4ePGGaqzRbT1sx5mpKa2HJZAthgDUn0Hw9dDPAGuhxvZreraVxvRzo37YoXLGHTJgI6674Pr4pzv/WXzh8S/EN4/e2/d9edHk7njnK97ZCc5W0mk9HB/vvAnLN18xE53Ww0ajePO1ljdc9I8WQ0bFri0RN792/pt98Ek//4yWvHhxyyEHvYqysj1Dq/zzLGPRqX5vNtYWXC2qsS3GJl/ZqYQqlcbWzuMCqkWYBWxYVkt98LK/E+98xa/Enz11T3z3+e/Gs2eObujTZiVWBmWrCbHOlW+4mpONmG61OiseFm/OpjtXELsztvrlp8cjnjsVMd6IuGRXxPYJP08LaTFkVHz0zRE33xCxc8vZ33Cu8nbrV7RfMRqy1TBXNdx3vgNeBQMJsM6RrYZlCbNyIP3YtmuiseO1naANqBZhFtA3uyd3dwbD5+3omaNx9PTRePzkkTjROrGqL5H/fvfky+LgzoM9963HeLMZM40i1Jppz3RaD7NqK7d3Z2xtxHMnIx5bsBT58VMR170iwzQ/U11aDKm7118a8cl3FGH2Yl63P+LOmyLueKAItY5Z1ZOay2rEDHYpp2EEWGd9mRwCf/yrPdsHorE1Gtuv7QRqY1uviLHxi/yUQoUJs4BNUQRTu/sWTK3XWa2HraL1MFc8HGsUodZG3rCdmDr779MzES9NFa1GFL75mB1BPWXlSYZYGVatxruvibjxQMSnvhZx231+KKivvIghzCqXYQdYC+XcrEEu0ZNfby68mryk536guoRZwEhozr5Zy0ArK7SyUmtqg62HW875Z+NjEedpMzyLeUHUTYbV2VJ40zpO1rMF8ROHirlaH7tT2Es9ZWttViC6sDNcZQqwzpXB0sypH/ds78vnnnxl0Tq49VWdrwPUlzALGCnN2RbDfrQevuy8ohLr6Ev5xjDisgu0GC6UM4KOa6miRt5zbTHc+ty5WGuVLYmff39x0p+h1uMv+CmhXjKozUpEBqvMAdZZD2dL/8KsztyrDK46AdYVZl/BCBFmASOn23qYb/amN9h6mAFW3uil6oS6yLlYGWJdtWf5byhXr2+s4TwxWxS/+uGI2+8r2g/N06IuhFmDU5UAa6Fs/Wu/cHfP9tX9461F1dW2a8y9ghEnzAJGVr7Jm1yk9bDRbHRCLTZGmEXV5VysDLHetoqT8qxE3Doecfk551W5mufVe5ceEJ+yZTGrvm69J+KL3++5GyrH8//mqmKAtVBndlVja0T7VM99i8nQqtENr8y9AmYJs4CR1209zFCr8+aw1Y4zrXY0x5udN4Ssj5MZqipn/eRcq19/08rfwE+OR9z5g4hHno344M/33N0JubKVMD9fDsVeqkUxt//O24uPyVDL7w9V9tBT5mb1W9UDrHNldVX7xAM926M796oztP1VnSougMUIswBmWw/Hx8djZmYmpqanO62HrelWtPuw6uEoMi+LqsoKqRzwvlwlVTo1HfGnP4j4zhM9d/XIk/psI8yqq5UqvbKVMedpZUVXhlrmaVFVWg03rm4B1kKN82+MmTNPxMz0c/Nzr7ZcUYRX5l4BqyDMAlgg3xROTkz0th42GjE+rvVwtVSVUDU5FytDrJxjtZJ7fhzx9b8sAq21yGDqQ19a3QyuDLzy9umvR9z2bfO0qJ4HnxRmrUedA6yFsl1w/JJ/3LMdYLWEWQCLyNbDvOVg+OKNZTvOnGnPbtd6uBJhFlWRc7EyxHr3KjpZ/uuzEV98IOK5kz13rUn+frz99tWtjpitjvlx3couqAqvA6s3KgEWQD8JswCWkdVYMzONTqiVLYjFXK12Z7s3lkvLK/JQdhliLTfHquv5k0WIlXOx+inDqbsPrzyfK1sec55WN9QSElAF3zriMC1HgAWwMcIsgBXkm8mJifFO22GGWZ25WlNF62FWaXmzebZsh3riWM9mKI1sfbrlraubi3XPjyK+/mjPXX2zcJ7WJ9+xfJtj3pfztO54oPg35mlRdv/lyZm4epl22lGT7x8WDbByhlRTgAWwFsIsgFXK4CpvC1sP81ZsN0+rS1UWZZUn1RliLRcYdX3j0Yiv/Gjtc7HWK4Op932umKeVodZyQVu2RGYgd9t9RagFZfX9v2rHgQt7gxsKeVGs0Rjr/AnA2gizANZorvUwq7TaM0XFVrsdE+Pjrqiak0IJ7dpShFirnYuVqxT+5HjPXQORvz9v/r2i/THbIJdqgczt3Xlat34l4u6Hez4Ehu6vjo/FWMPr4kJjMSbAAugDYRbAOnRaD8fHOyFWa7oVMROzrYdjnSqtUQ61tD5RJiuFQl05FytDrAef6rlrKLLqKlsPVwrhsoLrX72rmE+UoVZZHj+kv3i8ERPjQhsA+s+rC8AG5HyLycmJzqyL6Ax0LeZp5WytUZTzQI4IsyiBbNf72kciPrHCaoGduVg/jvjn/6l8QVDO0/rYnRHvuH3lYdrZOnnnTcXqiLuW+X5hkFzcAGCzqMwC6IPxZjNmGr2th7m9zq0E3WG2MzPtaM/MdCrU/uLIRM/HwaDsO3/lQepd3/mrYsD7cyd77iqVDNlyntZqBtffdMP8qodZ3QXDZDEQADaLyixgKFo1nAfbbT3MmVq5tHYGOzksfmp6uhP61EF+H1l1lt/TmTNTc1VoGWjl95uVJDAMWY2U7YRf/fDKQVbOxfq/vl208ZU9yFoo52LlPK1Pfz3i+DK/a1mJlhVpWZmWFWowTOYoArAZVGYBA5dB1kNPR2yfiLj8ovrt/6zEmmw0OiFPVmhlpdZUe7qSqx52VmycmemEWPl9LCbnhI2NFSsy/einBv0yeFmJdMsK7YQxOxfrKz+O+M4TPXdVSlZdZRCX4d1K87Q+//6iRTHbFbV8MQwucgCwGYRZwMBNtyPOzC53n8FWs6Y1os3ZFsOzWg9b7WiONzuztsqm0zI4G1q1Z9qdSqseYxGNsUZndarG2FjPoHsnywxSVh1liHXVnpW/aM7F+vpfFjOy6iB/1zKg6oZay1Wj5X1ZsZYVXbd9W7jAYD34ZNEiCwD9JMwCBm7LeMTP7Y3IBY7qGmR1dVsPMyjK1rwMiHL1w3ajmKc1zFUPz5p3tUTVVT6+bnC1mtlfwiwGIediZYj1tlWcIOe8qTt/UK12wrXIFq6cp5XVaRlqLTdP69ffVKzueOs9RQgGgyA8BWAzCLOAodgyYs8+GQpNTkz0tB7mKojjA2o9LMKr9lz11WIWBlfrCdqEWWy2nI11100rtxT+5HgRYj3ybM9dtZTh1N2HI25+bRFaLSX32++8PeLqPUWoBZstK7MAoN8MgAcYoGw9nJgY78yXSu1WuzNIPVc+7KducJUtjjmkfX5Ye3s+yBor5l11H9Pk5ESniqy5gYoxYRabLVfzWy7IyjbCLz4Q8X9+Y3SCrK6sgMl5Wm/5TMSXH+65+yy56mFWuAEAVJEwC2DAMigaHx/vBEgxmxll62GGTetd9bCzymCGV9OtODNVBFf5/xmWdT/n2GzFVc7s6oRXExOdx5GD6YfZ7ghrsdzA8288GvHP/2P1B7xvVIbKH/pSxPs/H/HQU0t/smxNhM2WCxAAQL9pMwQYkvnWw3an/bAzV2tquhM4jY8v33q4qnlXjWJA+2rnXfWDkxaG4b8+W1RjDXsu1lR/Cyw3LOdpvf321a/2CABQFSqzauBMK+I/P168mQeqJyujssWvGzhle2Cn9bA1f2bcqbzKlsHphS2DrbOCrLFOy2DjrJbB8dkVFaHOcqXCug5474ecp/XgMhVasNkMgQeg35zh1MCTL0a0IuLZE6O+J6Daxmfb/7otfxlWZXC19LyrRl/nXQH9Z/g1+D0AoP+0GdbA/tkBrnt3jPqegOrLICrDqZx/lXO0unL7wrbBMgZW2dIEnE1FCgBA/wmzamK/FYmgVppZdTXZ6LQXqrQCAACYp80QoMQEWQBUXa6wCQD9JMwCAAA2jTALgH4TZgHQF05WAACAQRBmAdAXwiwAAGAQhFkAAH2w5zx7EQBgEIRZAAB9sGeHvQgAMAjCLAAAAAAqQ5gFAAAAQGWMO1QAAABU1YmpiMPPRJxpRezcEnFwd0RT2QbUml9xAACACsnw5qGnI1ptRy11g6x0/HTEo8/3fAhQM8IsAACACsmwJkObp19y1FI3yOo63er5EKBmhFkAAAAVkm10l54f8fKdjlrK1sKFdm3p+RCgZszMAgAAqJCcByXImpfhXlarZUVWBlmX7Or5EKBmhFkAAABUVoZ7l1/k+MEo0Wa4QKb5OUwRAAAAgHISZs165qWIJ18sVsIAYO32nW+nMbqWqgj45St7NgEAsEHaDGe97LyIl6YiLj6v5y4AVkGYxSi6cFvEO14dcfWexb/5D/x8xKFXRXzszohvPtZzNwAA6yDMWuCyC3o2AQD02Doe8aafiTh0Rc9dPXIQ8effH/GtI0Wo9fgLPR8CAEvKUTiPPBtxZjpi93nOWyGEWQAAa/Pzl0S889VFoLUWr9sf8dUPR9x+X8SnvhZx7LQdz2i4eq8DDRvxg6cipmeKT5CjcbY0rWYJZmYBAKxCzsX6+2+MeM81aw+yFrrphoivfSTi5ht67oJa2rXFcYWN6AZZXcfP2J0gzAIAWEbOxfof/puIv/vaiFescCX8yw9H/PJtEZ/+es9dZ9m5JeITh4pQ6/WX9twNAHMmm+e8hkzaN6DNEIC+2LXVfqRe1jIX66GnIm69Z37I+w+ejvji9yNuORTxtgM9Hz7HPC0AVnLwZRFPHIuYbheVjloMQZgFQ5ODHLdP2P/Ux1KruUEVrXYu1vHTxfyr2+7ruasTTH3oS0XlVYZaVy3zO2KeFgBLyXOGA7uXuBNGlDZDGIJHn4944MmIZ16y9wHKZC1zsTJ4evPvLR5kLZTVWm+/PeLjdxXh13LM06KO9p3vsALQXyu8TQM2w3kTEeNjEdv1uwOUQs7FeserV1dhuN6WwGw7vPtwxM2vjfj1N/XcPac7T+s9157dughVJcwCoN+EWTAELzuvOHFqqo0EGKq1zMXKeSUZYm0kXDo225a4mnla2ZaY87RyqHyGWuZpAQAUhFkwJIIs6ijn/mTVClRBP+Zirdda5mll4JW3XCHxtm+bpwUA4HQaABgpmzEXa73WMk8rWxNznla2H0JVLBfUAsB6CbMAgJGQ7d0ZBP3d10a8YoVlzbPC8C2fKdr7BlEJlW2HGZpl9dVycp7W77w94q6biqouKLtdWxyiQcsFhh55drS+Z2D0CLMA6Jur99qXlE9WXx16VVGN9fOvXP7h5Vys938+4n2fG/yMqu48rQzRck7WcrrztD77LsO1gXmtdsRjz0c8cyLixJQdA9TXCsX1ALB6rsBTNjkX661XRFywbfkHthlzsdbLPC3qxEWOwcqZrK/eE3F6OmL7xCh958CoUZkFANROzsX6H19bzMVaKcja7LlY62WeFnXgIsfgZYh14QrPewBVpzILgL5xBZ5hyxO4bClcqZ0wZudifezOwbcTrlXO07r7cMTNry1Cq6V052ndfEMx6yvDMACAOhJmAdA3rsAzLDkX600/E/Gmy1ZeoTDnYmWIVaWwpztPK4OtT74j4nX7ez5kTneeVs7dylCr7GEd9WahAgA2wwpv9wBg9QyiZhgOvGx17YRlmou1XhlM5XD6DAgy1Lpk19KfaOE8reZYz90AAJUlzAKgb4RZDMMv/uzKXzTnYmWQVZcB6VlVlnO+sqXwo28uWgyXkq2JucIZDIPXBQA2gwHwAPTVcifVMGg5F+stnyna7eq40t9ts8Prb1+h2qzpHR9DIswCYDN4awNAX129x/5k+HIu1t/7UtGSV/eZURnSZViXoV2Gd1AWy7XBAsBGaDMEAGoj52LdNttSOGrWMk8rXXFRzyboK1VZAGwWlVkA9JWVqxiWR5+P+OXbRjPIWqg7T+sPvxPRnum5e87FO3o2QV8JswDYLMIsAPpq11b7k83zb7+/9Ke+7IKI/3BzMRB9lGWA8Me/GvGBn49oLLOK4b/5/3o2QV8JswDYLMIsAPrKzCw20z+5p2glXEouQJCr933tI6NXJbhrS8QthyK++uGI1+3vufssn/tuxL9/qGcz9JUwC4DNYmYWAH3l5IXNlMPOs4XulrdGvPuapb9Qzov6/PuLgegfu7P+Q+BvvqGoSFtpNdEcjJ9tmF9cpsIN+sXrweY5fPxwHH7xh3GydTKOnFjdyg/7t++Pbc1tsX/b/ji482Bsa27v+RiAqhibmekMU/jziPhFRw2AfvjZ/91uZPNlFWCGWitVIaXbZ4fCH1umqquKsvosq7GuWqEisjsY/7Zv128fUF73f7SoGKQ/MsC699lvxDeP3tuXz3fd+dfFL+15ayfYAqiQ34qI3xRmAdB3b7894qGn7FcG4z3XFlVJK63el4FOBloZ6lRdVrxkiPW2Ayt/I3c8UHzfda9Oo1yySvB7H3VQ+uFk60T8wV/+ftz/wv2b8vkP7DgY793/3ti3bRVXBgCGrxNmmZkFQN9pLWGQsmXu7bdFfPrrK8/T+sShiLtuqu48raxyyeAu52KtFGRloPz+z49GmyXlY35if2Q11j964B9uWpCVHn7xcPzTh/5J3Hv0Gz33AZSVMAuAvnMSw6Adm626yqrArERaTrbk5Tytz76rWsFrVqDlYPsccL+cDPQ+flexL7752DIfCJvo6r327kZluPR/PPy7nblYg/CHj/6BQAuoDAPgAeg7JzEMS1YgZSVSVmutNEsqK5vylhVdZZ4llVVkWY21mtlgZf9eGB0qdDfm8ZNHOuHSoHW/5ht2v7Giew4YFSqzAOg7JzEMW1YkZWVSVigt13qYstLprpuLyqcyyd+jT76jqCJbKcjKVRvf8pl6DrmnmlTorl/OyPoXh393aF8/A60M0wDKTJgFQN85iaEsskLrzb9XVCwtJ4fH/87bI/74V8sxTysrsXK217uv6bnrLE8cK+Zive9z5mJRLip01+9Pf/KnA2stXMoXjnxhiXsAykGYBcCmWE1LFAxCd55WVi59a4Vig/y5zUqorIgaRoXhjQfm52LlwPqlZLXZb99TBHXmYlE2r9w1E9ua0zHdakWr3Y7Z1dNZhaNnjsafPXXP0HdVDoXP4fMAZWVmFgAb0j1JaXdOWCJm8r/2TLxyZ9M1E0olK5eygikrrzKsymqspWRFVAZLt91XBGGbLasZb3nr6kLg2+/TTki57dsVndeB/C+1uo92LKIxNhZj59yYV4Ygq+vPnvpKHNx5sGc7QBkIs4ANefLIiXj08Ivxw+8+3/k0f+3Qnrjy+gvs1JrK4Ko9e4KS/58nK0u56uKZ+JMl7oNhykqmrGi6+YainW+pCqjcnhVSOUvr1q9E3P1wz4ds2K4tRYi1UjthzM7Fysfx4FM9d0GpvOGysRgfbxavE/m6UVzp6Nw6/x9nv3aMNWbDrRiLRmO0A67vPv/dnm3Dcv8L93fmd21rbi/NYwLoEmYBa/LC0TPx6A+Pd8KrRw8fj9MnW2f98wy3Lvtn18bW7U07tsLWElpF90Qk/8ur7o2iGuvaV7raTrll1VXO1MpA66Ybln6oWcH1r97V/zBppTCtK+dibVaYBpsh52V1XwsWWuq15awqru7birHohFrnVnLVWbYYPnvmaKm+w2w1vO6C63u2AwybMAtY1qkTrU5odXg2vMowazkZbuXHqc6qhu4V8+7V8/WEVkudXJRhiDasJFv1br2nCLVWavPL++68KeKOB4pwab1tfqtpc4zZuViDanOEflrq+T9fL5rNs18zzm5Vnyna1WcrufLP1mJVXFEEW3Wr4jp6ulxBVjpy8ogwCyglYRbQYy68+uHxePLxta+m85gwq3Tm2zzmw6tYJrcqroDHhuea5Mn/SgO3oQyy2irnaeWcrAy1lguauvO0MmTKsGm1cqB8hljLBWZdGw3MYFjyd2fXCtWGC3VfW5rNsyu6l7rYUucqrsMv/rBn27ANe1VFgKUIs4C5uVcZXh2+//kN75BsQXzbey1lNwzDCq2Wkq0mwiyqJFv58pbtf9kGuFQLYG7/xKGIm18b8bE7l19RME/sV2pl7MrflwzJlvt8UGb5vN8PnSquRV6PilbF9lwF17JVXHOva0U1sWHza3fkhBdxoJyEWTCCunOvsgIrg6dz515tVH7+vJ2/e9KP1yaZWXi1emFbxlKGdNU6W01uX0PlCpRFp+rq2ysPZ88qlM+/vwihMtTKFRMXyuHxtxxaOhTryrlY+TWz3RGqbKkWw34pWhUXr+Kau5DTreLqhl2dKq723Mdnq2KjuJIz97oIQLUIs2DEfPkLR+Iv7tn8pbAyLHvNG3f3bGdtNhJaleFN+tV7ejZBZWSLXwZU3SHxy7UH5n1f/XAR3mYoldUpGWJdtcLvQHcuVgZnWgqpg2HMS1xYxbUw5pobOD8zO3R+Qatit4qrteBzdCuVV5oJCcDwCbNgxAwiyIrZVkNh1uqdPQD37KvJiypZaLWUnBGUlStZdQJVlS1/OU8rq6wy1Fpunla2Eq6mnTB9+eFi+Py51VxQVVmBWKaLGEsNnO/e2ue0KRYvuzM9VVydoKvns/ffSouwADBPmAVsimxhpFdPaBWrXEFwrFi9qYorN+VV+hxmDVWXFVp3Hy7mZP36m9b/zTz0VBFimYtF3VRhFduFbfaLVnHF0gPnN1t7uYtYAJxFmAUjZu++betaoXCtcg5XDpbfu3/7yP6InTWkdgRCq6UIs6iTbAXszrbKNsK3HVj9N5cthRlimYtFXVUhzFrKSlVcg9DQ1giwasIsGDGXXblzIGFWdKqzXhyJMGupq7lL6YRWMTqrK1X55AaWkq2BH/pS8fO9mtlY3Vla5mJRZ3V7vh/UYilzX68hzAJYrYY9BaPl0oM7B/b9/vC7zy0ywLzat5yjMd1qxdT0dJw5M9W5TU1NR6vVinarfVaQ1VktqdGIZrMRExPjndvk5ERMjI/H+HizsxrTKAyXzblZK53oQ1Vlq+Dbb4/4+F1F5dW5cpXDt3ymqMgSZFFnZZuXBUC9qcyCEXPl9RcM7Bt+7PCLnaCn7rpXbruVVmEFpB55tf6hwaw9AEOxcJ5W/rwfO1WsUmguFqPixjW03ALARgmzYARlddZjAxrQfuTHL8WlB3b0bK+qsbPCq/rMtdpseXKfbVZQZ915WjCKtJQDMEjCLBhBlx3cMbAw65HvH48rrhpcNRjllFfsswVlsTYsAKrvxoMO4kZtb5ZvzujBnQ4sUE5mZsEIGmSr4aM/HExoRvm5ag9QTzkXcdcWB3ej9m3bX+1vAGCAhFkwgnKFwS3bmgP5xnPlxFMnWj3bGT3mqQDU03uudWD7Yf/2faV7TAd3XNmzDaAMhFkwoi4b4KqGjw6opZFy04ICUE8qb/tjW3N77NtWrkBLmyFQVsIsGFGXXTm4MOvwd5/v2cboyRaU1+mgAKiVS3ZFXL3HMe2XN+x+Y2key+t3v6FnG0BZCLNgRA10bpbKLGapzgKoF8/r/fWG3W+Ibc1t5XgsF5UnWAM4lzALRtT5uyc7t0F44eiZzm2hE1MRrbafvlFjbhZAvZiX1V/ZavhLew4N/XFkVZYWQ6DMhFkwwgY5N+uHC1oNT09H/OCpiIeeFmiNmn3nR7xNoAVQC1oMN8c7X/ErQ52dlZVh79333p7tAGUizIIRdnCQrYY/nG81HG9ETI5HbJ+IaHoWGjmqswDqQVXW5vnwFf/T0NoN/8HB3+hUiAGUmdNIGGGDrMw6dbI19/8ZYF2zN+Lyi3o+jBFgvgpAPQizNs/uyd2zodLgAq38Wh+47IOxb5vVWoDyE2bBCNu6vRl79w3mTdJlB3f0bGM05aqG777GwQeosqv2FK3jbJ4Mlf7RVZ8YSMvhRbPhWZlWUwRYjjALRtxlV25eddaWbc04eN0F8Ssf/Jn4b3/llT33M7pUZwFU2803OICDkBVaGWi94xXv3LQqrRw4/4+v+scqsoBKGXe4YLTl3Ky/uOepvu2DSw/ujCuvv6BTibV3v3kLLC7nZuXg4CeOLXo3ACW2c4uLEoOWQ+EP7TkU9x69N+49+o14/OTjG3oEWYl1/QXXd4KsDMzqJBcXOnw04rILivmsQD0Js2DEbXRuVrYpZnVXN8SC1cpZK5/+ut0FUDV5QSJbxhmsHMqe4VPeTrZOxJETj8fjJ4/EidaJVT+OgzuujN1bdtcuwFropy9GHD9dXDA7UN9vE0aeMAvoBFGPHT6+qh1x/u7JTgCWt6zqyrlbsB7CLIBquvm1DtywZbB1cOfBzo2zZeV3cyzi4vN67gJqRJhFqR07XVxZSS/fUayCR/9lRdVSYVbOveqEV1cWlVcZZkE/5ODgtx2I+PLDdidAVeTg96v3OFyU28sHt2A3MCTCLEorg6wfPD3/6J47GXHNXsdrM7zmDbvje994Jp58/GTns1/aqbza0QmvzL1iM+UAYWEWQHUY/A5AGQizKK1uRVbXiaki4DKjof+yVfDvfuLqePLICeEVA/X6Sw2CB6iKHPyeLeIAMGyatiit7HU/13lWJNlUgiyG4aNvttsBqkBVFgBlIcyitHJo484FVViXX2hmFtRRXuXP6iwAyivfkxn8DkBZiAYorQyurro44hdeGfHX9kW8zIokUFvaVgDK7cYDRj0AnKvVLmY7M3jCLEpPNRbUX17t3+kkCaC0tIQD9Hro6YiHjwq0hkFMAMDQ5dV+s1gAyund10TsO9/BATjXy3dEbJ9QuToMwiwASkF1FkA5qcoCWFyOwrlmr26iYbDLYYiOBlWPkgAAIABJREFUnY544ljET487CqA6C6B8VGUBUEbCLBiS7Kv+wdNFmPXYC0W/NYXcNzlMkdGjOgugXFRlAVBGwiwYkmdOnP11j592JGI2yMohisK90aQ6C6A8fv1NqrIAKCdhFgxJc8yeX0yGGTlEMYcpMpqyCuCSXQ4+wDBllWxWywJAGQmzYEjyZH2yOf+1L7/QkUg5PDGHKOYwRUaXthaA4coqWatzAVBWwiwYki3jEde/IuLVF0dc93LhDSz0nmsjXrffLgEYhrzg5qICAGUmzIIhy6ueGWwBZ7vlrT2bABgAz78AlJ0wC4BSunpPxE2GwQMMVFbF3njAPgeg3IRZAJRWtrnsNLMFYCDy+faT77CvASg/YRYApZVtuLcccnwABiGHvu87364GoPyEWQCUmmHwAJvvqj2GvgNQHcIsAEov2160GwJsHu2FAFSJMAuA0su2FxUDAJvj199ULLoBAFUhzAKgEnKWi3ZDgP7SXghAFQmzAKiMz75buyFAv1i9ECiLoyccCtZGmAVAZexy4gXQN1mRpb0QGLYHnoz48bMR//VZh4LVE2YBUCk3Hoi46QbHDGAj3nagaN8GGLbzJiJiJmLXVoeC1Ru3r4A6OD0d8cyC8uTtExEXbnNo6+qWQxHffCzioadGfU8ArN0lu1S5AuXxsxdFXHJ+xGTTQWH1hFlA5T3zUsQjz/V+FzkL5ODuiKYa1Fr67Lsi3n57xPHTo74nAFYvXxtz/uAu8weBEhFksVZO8YBKO3Z68SArZcjx6PM9m6mJfecXgRYAq5eVreZkAVB1wiyg0p58cflHn62H2YJIPb3+0ohPHHJwAVYj5w2+51q7CoDqE2YBlXb81MqP/nSrZxM1kgOM332NIwqwnNftL6qyGA2ttgMN1JswC4DKy0HGV2mbAVhUPj/mnCxGwyPPRjz0tEALqDdhFlBpO1exhO8WAyVHwh//qkAL4Fydge/vMvB9VGSAdWIq4sx0xLQwC6gxYRZQaXt3LP/oX7Y9Yot1W0fCrtkTtp1O2AA68vkwg/5cMIPRkCs4X3VxxM/t9f4HqDdhFlBpGWBcfuHi30G+ib/sgp7N1FiesOWJm0ALGHX5PPhHf2s6Xv0y5TmjJgMtQRZQd57mgMp72XnFm/buyoX5Bm77RMSF2xzbUZRLzmeg9b7PRRw/Pep7AxhV//Cvt+Kqi2dieroVY412jDebMTY25ucBgFpQmQXUQgZYl+yKuPyi4k9B1mjrBloqtIBR9Dtvj3jf9c1oNou3+jPtmZiamo5Wy/K+ANSDMAuAWhJoAaMog6z3XFt8481mMyYmxmOsUVRktVrtTqg1MzPjZwOAShNmAVBbAi1glCwMsrqytXBifDya48XSvhlkZaA1rUoLgAoTZgFQawItYBQsFmQt1Gw0YnJyIhqN4u1/u9WOM2emot02IB6A6hFmAVB7GWh9/v0zAi2gdvJ57c6blg+yFhofL1oPY3YWfA6In5rWeghAtQizAKi9VrsdBy6c7ixTL9AC6iKfz7LyNAP7tcjWw8mJCQPiAagsYRYAtZZVB63p4gTt5/aOxdc+EnHVGk/8AMrmqj3rC7IWMiAegKoSZgFQW3lS1p0Hkydt2V6za7aS4XX7HXegmvoRZHUZEA9AFQmzAKidPBnLwcbd6oIMsbrtNKkbaL37GsceqJZ83rrrpuJ5rJ+WGhCft5yp1alybbU6FwhUbgEwbOOOAAB1kvOxum2FWXGQQVb+uZhPviPi9ZdGfPyuRe4EKJlPHIq4+YbNfUz5nDkz0+iEV93QKmdq5X+LyRbFzn9jMReELfWcCwB9e73q2QIAFZVtMVlNkBqNDLJWfpnLFcCu3hvxvs9FHD/dczfA0OWg98++qwjfB6HTejhRPH92A632bKCVf+9sm822FgZdrdnn346x4vN0biHoAqC/hFkA1EJnafl2cUKVLYU5I2u1cu5MDob/0B0R3zri5wEoj5zv99l397+tcLW64VOz2RtCzQdd7U6cdVbQNTP7d0EXAJtAmAVApXWGFU9Pz1UJ5BDjZmPtIyG7c7Q+9bWIT3+9526Agfv1N0V89M3l3e/zQVfvxYOzgq5OvjUzd8FhuaCr8zmzZbHzucc6VbYh6ALgHMIsACorT5KmZ+dj5clPrsi10ROePHHMVp6P3RnxxLGeuwE23SW75mf6VdVKQdf87eygq1vZ1ZoLuub/3WJBl5ALYDQJswCopFxVq3s1PwcQT6xiPtZq5QnkXTcXgdaXH/bzAQzO2w4UQdaw2goHodtiuJh1B12NomWxCLzGOoHXUl8DgOoTZgFQOdPT051hxDE7ayVX3+q3XbMDl+9+uAi1DIcHNlMOec8Q68YDo72bVwq62p1Aazbsmh1AH3OD6CO6PeethZ9T0AVQO8IsACojT14WLhe/3vlYa5EnljkcXpUWsFlGoRqrHzKAai4RQvUEXTPzc7tWDroy3FowlH6JrwFAeQizAKiEzqD3qem5h5rLxg/qhKNbpfXNx8zSAvqnDrOxymKpoGt+EH2xxGJ7tlXx7KBrpuffhaALoNSEWQCUXs7Gas0OR8kTiQyyhqE7S+u2b1vxENiYXKnw5teqxtps84PoZ/9c8PUWC7q6c7liuaBrYbg12+4eVlwEGChhFgCllm2FuWphbOJ8rLXIE89c8fA91xZVWt864ucHWL3X7S+qsfadb6cN2+qCrnYxm2th0DVb2TUzN4i+Pf8PBV0AAyHMAqC0sq1wbj5WsxnN5ubOx1qLPBH941/VegisjpbCapkPunovoCwadLW75VxLB13FAProDKDP/2k0xua3A7AmwiwASmeY87HWKk9Mc0D8bfdFfOprVj0EzpYhVreak3pYKeiaWTiEPuaDrm5lV2su6Jr/d4sFXUIugKUJswAolVa7Ha3p+flY2VZYhTf0N99QnKzmPK0MtoRaMNp2bimeFzLIYnQsNyR+3UFXo2hZLAKvsU7gtdTXABgVwiwASuPs+VgZZFXrZao7TyuHOgu1YDR1QyzD3TnXSkFXsdLibNg1O4A+5gbRR3Qn0y/IuSobdP34yXa8eM7r444tEVfsLc84AaDchFkAlMLZ87Eai7ZvVIVQC0ZPthNmdaYQi/XIAKq5RAi1saArw60FQ+mX+BqD8odfnYovfbsVL51eZJXIiDhvy1jc+JpmfODN47Fjaz2rz05MRWxpRpRoDChU0tjsicOfR8QvOoQADFpnPtb09NxS6NlW2F39qS6OnRZqQV2ZicWwzA+iL5ZYbM+2Kna3L2fQQdeLp2biN/7NmXjkqXbPfYu5fE8jfvdvT9Yu0Mog6wdPRUyOR1yzt+duYHV+KyJ+U2UWwIh58KmIY6eKVfi6Mmx58Mn5VbZypb68Xb13cysMFs7Hyj6JifHyDnrfiG6lVt6++P1iULzVD6HaXre/qMK68YADyXDMD6Kf/XPBo1gp6CoquhYJvRaGW52W/+Li0kZfm//wa9OrDrJSfuz/dseZ+N2/Xa8yx6zIyiBr+0TPXcAaCbMAau7xFyLufjji7sMR3zqy/Pe62P1ZdZCh1tV7irCrX8vKT7da0Z5dsjyvEE9UbD7WemX1Rt4yTMxKrS8/XM3vA0ZRzsPK8CqD6Qz8oaxWF3S1i5bF2fbF4i+zf58bRL8ggFpn0JVVWX/y7eme7Sv53mPtzmytOs3RytZCFVnQH8IsgJrKCqxbv7J4QLUWWUGUtwxdPv314mQuA608obvx4Poqt6anp2evFkc0mo0Yr/B8rPXqBoMZNma1Vt5Ua0E5XbWnGOq+3uc8KJP5oKv3tXe9QVcxgD46A+jzf3IRl+72+x9bfUXWub5+uGUoPLAoYRZADWUwcus9mzOfKT9nBlt5+/hdEW87UFQarabVJt8E54qFc4Pex5vRrNl8rLXK6o5uC2JW0OWxU60Fw9etwspWwqxMhVGwUtA1f4tOqDU3iH428GrNBV3z/+7hn6w/zAJYijALoGay0mezgqzFdIOtlVbyyqu809Pz724nJuo5H2sjOtVuB4oZZt1qrYeequ73A1X0ttnfQwPd4WzLDYlfPujq+XCADRNmAdRMVvcMY8W8bJHLNsS8vfuas2fKtFqtuXaEfCOcQRZLyzAwW5ryluFkztbKmWfaEGFzdAMsbYRURa6Kl68Jl19YzGEatuWCrmZzKi9p9WwH2AhnEwA1kysVDtsdDxS3m26I+F9e34odE8Wb2BwWOz7e27rA0jIQvOVQccs5aFmtJdiCjXvrq2bibxwcE2BRSY8+X1y4enoy4uU7HUNg9AizAGrm6hKtknP7fRm+NOPvvz7i5r82NvLzsTYq5/YsDLZyRUStiLA63RlYh65oxWsvaXcCrFxJtViAYvGKEiirg7sjfvqiIAsYXcIsgJrJk7U8aRtGq+Fi8nH8s//YjD95qAhhcgU/Ni6DratnV1jLGVtZrZXh1rDaTKGMchXCbvvg/BD3ZrTaY9HKxSjaMzHVnu5UjDaE7VRIthbmrMoquO6yZvzR16bX9Uhffr7fS2BxwiyAGsp5Vb99T7m+r6weev/ni9bDfHzaevon92UOq+4OrM6qrW649a0jtfgWYVUyvMrAvHtb6nkmq0QbE2Nzq6vmn43GjDZo2ATXXdqIveePxZMvrG0S/HlbxuKNB4VZwOKEWQA1lNU6GWaUMcjI1sMMWT75Dsvdb5Zu1VZX7u/uTbhFnaw2vFpMdzGK6VYr2q12Z8XVqaki0FpqkDWwPh9560T85h1n1vRvP/CW8dix1e8isLixmWKt1D+PiF9c9CMAqKRsPXvf58o9T+kTh4rgjcGYmp7utFX9xeONOPxscy7g0pZIFWT79NULwqucD9ivCs98Pzw1Nd8G1Ww2o1mGJeKgRu7+Xiv+5Vem4qXTK1do/dqbx+MDb5no2Q4QEb8VEb8pzAKosf+/vbuPkfyu7wP+2Z3ZXfts32Fi3xH8QGU4pLvYEAVbdgJpVDmYllRKsC2V0FSVLZUGqVUjFf5qagFp1UgOEv6nJFSCqn8QKsWUSIUGGyoUbIqDGwVw7MpnW8IPkDtjzN354W53Zrb6zOzvbm5mdm/3dh5+v/m9XtJo72bXe/Owu+d53+fz/ua6WQZaZQ4r7rg+4p5ft3Y4ae12O9rt3qmSOY3SP3ny/PHe18rjR3vhVv5awMUs9QdXGVrlr/Nkz0lrtVrR6fReaGc5/FLTEgOMU64afu37rfjes52Rn/WtBxbjjpua3bVEgE0IswDqIIOJD98f8cKJ8t7ZXBX64ocEWpPSP3XSaDa2darkYMCVvy/z1xDVdWgjqCrCq/z1NIKrzWTom+FvQTk8AJSKMAugLqqwcpiTGBlo6dEav9XVte7nzBfkuy24LoKtvAi52K5i0qoIqnLaqgiwyqgohd/4/+RYbCxGs6EcHgBKQJgFUCcZaH3y6xH3P1beO50veD97e286g/EoerKKsutJySmuE6d6AVd+reVEl6CrXq7aezasKgKrnLYcZ7fVtBXl8LFRGK8cHgBmTpgFUEefezTiD75R7jt+7/sj7rxh6Gp2aKuerGkqJrn6L2UOVTm/DJ7zRNIMqWa9FjhpyuEBoFS6YZa/iQFqJk8P/NPf7k1RlNXHvhrxZz/wlbkb+QK8CLIaM54myaAjp+0yoLz7pqF3U0F5QMDnvnt2XXCe5ffO8vJSLC72vocyJM6JRwBgdoRZADWUwcJX745478Hy3neB1u4UkyTZk7WdwvdpKLrbTGXNh0ee6z2fJ2py8mWz2exOZaVc3c0uuk5n9IlsAMBkCbMAamrvRj/Vn9xe3iktgdaFKaZGio6fssjOtjIfQsDOPbFxWmpd5Hph/8pulsS3+k4+BACmQ5gFUHO3vrUT3/wXrfhXt5RzwuCT3+iVi7M9uQKVUyPRnSQpT5D10a+YyJpXOaGVz29dFIcpLG70ZmVBfE5CFicfAgCTJ8wCqKF2pxOtVqu7JtNutaPTWY9//cvt+PN/1o5DV5br8Ti5sZom0Dq/MvVk9fv0Q4KseZfP7ydLfrDEuDUbjTOBcVESX3z/AQCTJcwCqIlRAVZsTBlkD0xOGrzjzY1ul9ZdN5brMclAK1eZ6tLNc6HK2JP1wJGI+x4eupo59PlH67cWnN9rWQ6/0FcO31IODwATJ8wCmGPbCbDykj0w/VM899wace/7e8fvl8ULJ3oTWoxWxp6s54/Xa/2M+q4FL/WVw3c2yuGtHQLA5AizgFpbP/V0rLd+OlcPwYUGWIPuvCHiix8qV6CVZdPCkWFl7cn68Jd6U3XURz7fdf0eHSyHz0lJ5fAAMBnCLNiFrMZ45qe9t1TD+uoL0Tnxl9F+8fOx9ty/i9bR/xytF/5j97oqG1eANejw/oiHPhJxaP/Qu2Ymu3mccHhWmXuynFxYT/m8160/q6AcHgCmo+lxhgv3w59F/OS13n9+3Rs9kGWUU1fd6avTT8f6qadivfXyyFvZPv61WNz794euL7MMsNY7nTPBVSFfTGWPy+LiwliCjb0rvQmtXPErSziRL5QPH+iFbXVXxp6sXDPTk1Vv2Z9128GIW66t58OQ5fCdhYVotdpnyuHzHxYaDf+ODADj4G9U2IW3vCHiij29t5RH57XHov3TL0frx5/qTl21X/pidF757qZBVlfnVDf0KrtJTWCdTxFovffgeT5wSuq8ytSvjD1ZyXNDRH2nswrK4QFgcoRZsAv5D6w5keUfWmcrVwfbP/tad2Vw7Yf/trtC2Dn5rVhf/dGOblfn1FND15XBrAKsQRloffb2iDuuH3rXTNR5lSlK3JP1uUetF9KTXwe5blp3yuEBYPysGQKV010dfO2x7upgN4DqnBrLXVh//bGIN7xv6PpZmNYK4YX4o9/orZGVIbCo6ypTWXuyTpwWXnCuDDfzMImr9w29q1byHxvy53b/2mH2ajUb5QmiAaBKzJMA5dd5vbsmmOuCrRf+Q2918OU/764TjivIiu6E14+6f9aslGUCazty5bAspfB1XGkrY09W+uTXnV7IuU4KOM9QDk/ZnW451AioDmEWUErZX1X0Xq099/vb670ag84Ue7OK6Zp8MVOFAKtf0aFVhkDrhRP1erFc1p6s54/3TpqEQfl1kV8f9OQ0VvG9W0xptSUIzFgGWX97NOKJFwVaQDUIs4BSyN6rzom/PNN7lW8vpPdqt9Yn3JvVH2D1XsC0z/yrfNkDrEFFh9ZlK0PvmrpcZarDi+Wy9mQl0zdsxdfHuXKqMn/OK4enLJqLEcvNiD1LumCBaljYeBH1zYj4Nc8ZME3dAOv4A2Ptvdqthebl0bzq98f6OfPnbE5cdbIHa718HVi7lf1ZH/zC7NfL8qTFDNfmVTHBERs9WWVaL8wg8Vf/eOhqOMe3fld31igZZJ2ZzFroFcZX9e8Dqi2/DAVZcH4vvx7xw59FrLZ7H9pciDhwWcRVez14U/KJiPi4H1fAzHRPHRxz79Vu5RpjFszv+vPM0QTW+RzeH3HPref5oCl48EjEd56d/e2YlLL2ZIWpG7bJ18loxd8HGWTFepz5OwOm/rXolSGc109ejTjy0tkgK7XWe7UXz+z+JQQ74EcWMDOT7r+6UOsX2Ju1VYCVk1c5TbO8vDQXAdagPK3srhuHrp66LIM/MYcF5GXtyYqNEwwfODJ0NQzRnbW5/N5eXlrqhtXRndZSDg9QNtkt98wWL19+8lov7GI6hFnAzCwsv7mUD/766e2HWdsNsJrNZummacYtp7NmXQg/j2XwZe7JSp/7rhMM2b4/+4EHayv5PT5UDt/Rxg1QBi9v49Dzl8uzcDL3hFnAzCysvLWUD37nta1fbQmwNpcnHM66EP7zj87PumHxtRYbPVllnOYTTrATeVgDWxsqh29lOby1w2n7u5NO9ZtX+bzm8ws71d7GsGzLz42pEWYBM7O454ZyPvidU91y+n4CrO3JEw7/6DdmfzvmZd2wzD1ZKdcLcxoOtuuktdRtyeA6i+AbGyVGeYDI6tqatcMpyaDj2eMRT75Ui7tbO/m85vMr0GKnGtv4N8WmhGVqPNTAzCxcVM7JrNjozRJgXZjbDs6+PysDlgy0qqzMPVmFB54cugrOyzTf9o0uh/fP/pN25SW9KeO3vGG+72dd5fOaz28+z7ATl198/g++/KKhq5gQr76AmSproNV+9QcCrF34vffM/njiPN2wqi+ay96TFRvF71noDTuV35vzeFDDpJwth99YO2zn2mFrHu9qaeRA3KErI/Ys1f2RmE/5vObz6/RGdmqlGXHd5Zv/Rxl2XSEknRrfwsBMLV58fTmfgNVnum8EWBcm1w0/e8fsb8cnvxHx+LGhq0utCj1ZYSqLXfL1s3Pdv4MavXC701mP1VVrhwDTlmHVwZ+LWO77t8bmQu8fcfN6pserMmCmyrxquNR5VoC1C4f3z37dMPt5Pnx/taZAivXCsvZkFfQesRu+fi5Mdmh1y+E3Qu5ighiA6ckJrF/8+Yh3vTni+gMRv3TV7DcS6sgrNGCmFpavilgs53L5+U415PzKsG6Y/VkZaFVBd3UoBy0WyrteGBsrhg8KI9gFq4YXrlsOv9TsBt7RXTvsdENwU1oA05WrqtaRZ0eYRWmdVgdRG4sXva2Ud3X99NND17EzZTnd8JHnyl8Iny9IOxs9WXmKWZl959lS3zwqwqrh7mTg3dgIvbNjL6e08tRDAKgDYRal9NpaxN8ejXjmp56fOlgoaW/W+uqPIjqvD13PztxybcR7D87+Qcuy8s89OnR1KfR6snqrQtmJU9aerIIQgnEQiu5eriL3rx22Wu1oWTsEoAaEWcDMlbk3q3PKdNY43HNr7xjsWfuDb5TzhMOzPVkL3U6cshNCMA56s8bjzNrhxs+OTq4drlk7BGC+CbMopdw9/oUDEde90fNTBwvNN8ZCc4tzbmdo/fXHavM85ETkX78Q8VfPR/zNj3u/H5er90XcPeMy+MLHvlquQOvcnqxyrxem54/3eshgt/KAhqqdNlpmzUbjTNdeBlndcnhrhwDMKWEWpbVS/td0jFFpVw1PPTV03bzKtd7Wxj/kr7bHH1jcfVN5TnopS6BVpZ6sgqksxsnX03hlKfzy8lIsLPbWDtu5dtiydgjA/BFmAaWwUNYS+NbLsd6qR3nb4CRWa8z/oJ9l8Hm6YVnMOtCqWk9WQfjAOPl6mowMx4uV5SyFX11bs3YIwFwRZgGlsFji3qz1mvRmHbj03N/vnUDH1Z03RBzaP3T1zMwy0KpaT1ZB+MA4+XqanAzJs0srV5hzlbm7dti2dgjAfBBmAeWweHEsLL+5lE9GXXqz3vKGiGv3RVx+ccR1l09uJTDL4MskA62PfmW6N6hqPVmFE6f1ZTFe2ZuVPWxMRk58Li8tdUPz6K42t3s/fwCg4oRZQGmUtTerU6PerDddFnHw5yKuuGToXWNzy7URN18z7Xu2tfsfi/jwl3phzaRVsSer8PjRoatg919XSuAnrtldO+yVw+fPn9VVa4cAVJswCyiNxZL2ZkXnVKyvvjB0NReuTN1ZhQePRHzwC5N9YV3VnqyClTAmQUg6HbnOnGuHxc+d3tqhcngAqkmYBZTGQol7szqv1WPVcFrKOJ2VnjjWC7Qm1aNV1Z6sgnUwJsFk1vRkkJWBVp56GBuTovlzyZQWu/V3JyNUsgHTJMwCSmVxTzlXDddP16MEfprKOJ0VGx0+2aM17rXDqvZk9RNmMQm+rqav2WxEo9lbO1zvrHentPLUQ7gQGWQ9ezziyZc8fMD0CLOAUllYKed0Vl1ONJymnM6aVMn8OOTa4Xs+E/HAkd1/sir3ZPV75Lmhq2DXnjCZNRONxXPXDlutdrSsHXIBrrwk4rKV3kEyANMizAJKxaphvZR1OquQU1r/8ku9Ka0LnR6pek9WYRyhHmzGquFsnFk73Fh77uTa4Zq1Q3Ymv3wOXRmxZ8kDB0yPMAsolYXlq7IJvpRPihL48bvzhnJPZxVySutX/zji0w/tfPWwyj1ZeV8/92hvQi1DPZjY19qpoauYomaj0V09jI0AvlsOb+0QgBITZgGls7jnhlI+Kd2gjbG7s5xP90j3PdwLdrYbalW1JytPLfzoVyLe+emIP/hGxAsnhj4Exspk1uxlKfzy8lIsLPamR9u5dtiydghAOVW3uAOYW93erFe+W5q7t7D85li4+PrSltNX3d039aZ/To6xbH2S8nZmqJW3+e4be2Hc1fuG/8Cq9WTlGmXepweeFF4xfSazyiN/XuVqdO9nWCdW1zrd66q6Ig3AfBJmAaUz696sheblsXDR27qhWjfAWrx46GMYn70rEbcdjLi/YpVkRaiVlzuuj7jt7b37ERXqycppmAyvsg9LCTezZDKrXPLnVk5q5bphTpfm27yuaqvSAMwvYRZQOgvNN3anodZXfzSdm7Z4USxuhFcLe67v/vlMV05nVS3M6pe3PS/Z/5Wh1m8easehK8rXk5WrkblCmAFWvjWBRVmYzCqfDOFz7TDXpXPKNAP69fVOpVamAZhf/jYCSimDpUmGWTn9VUxe6cKavcP7Iw7tr/50UIZDn380L8148971+OVrF+KWa6N7GbWKOGm5OpgTLxlc5cX0FbBTze7aYacbZmWotbq61j0B0dohALMkzAJKKdf84uS3xnbTur1XOXl10dtiMdcYrQ6WTnZPZdn4vPjRiYUzE1spp7YOH+gFd0W4Na6AKyeuHj/aC6/yksFVhlhV6SEDa4bllhOmOWm61upfO1zsrh4CwCwIs4BSysBpN2co9fdedaewrA6W3ryFWYNyaisvDx7p9WwVMuQqQq0MubYjw6rYCLFMWzEPBK/l1107XFrqnnCYxfDdgvj19WiWuBcQgPklzALKafHibgi1furpbd+87spgEV5ZHaycLILPIvUqd2ddiCLkSo88V7EbD9ROs9mIdmch2q12rHfWY63T6l6XhfEAMC3CLKC0ur1ZW4QP0LjCAAAUWklEQVRZ3dXBi6/vlbfP+ARExiOns+oWZgFUTWNxMRaXFrpTWnl6a75dbPSmtABgGoRZQGktXnpTdE7+ZUSnd8xVd3Xw4uv1Xs2xXLObhyJ4YOey720WByVwYXK1MIvgW1kMnyuH7U6sdda7U1rWDgGYNGEWUFrZc7V01e/3TjXMIEvvVS3cfWPEx75a90cB6keYVU05jdVZODul1S2Hbza601sAMCn+lgHKbaM7S5BVH7lqmKXoAFRD9mXllNbCYm8iK/u0MtwCgEkRZgFQOvf8uucEoEq6a4fNZjQavZcXeeJhTmnltBYAjJswC4DSue1gxM3XeF4AqqbRaHSntFKxdthudzyPAIyVMAuAUvq993heAKoop7SWl5disVg7bOfaYctzCcDYCLMAKKU82fCO6z03AFXV7K4dNrq3vtNZj9W1NWuHAIyFMAuA0srurMtWPD8AVZUdWt21wxzSWo+NtUPl8ADsjjALgNLauxJxz62eH4Aq664dLi11Tz2M7tphJ9asHQKwC8IsAErtzhuUwQPMg2azEY1mb+1wPdcOV9e6px4CwE4JswAovc/eYd0QYB40FntrhzmtlVqtdrSsHQKwQ8IsAEov1w3/6Dc8TwDzIIOsDLQWG72XIp1cO1xrKYcHYNuEWQBUwm0HI+660XMFMC+ajUZ39TBlkNUth7d2CMA2CLMAqIwsgz+03/MFMC8Wi7XDxd7aYTvXDlvWDgHYWnPL9wJAyXzxQxHv+UzEydOeGYB50F07bDaj3W53TzrMUvi1tfXu1FbRrTXK6lPfjtOPPRCtY09H58SxER9xruaV10XzmnfGxe/6QCzuOzD0fgCqQ5gFQKVkf1YGWh/8gkALYJ40Go3upFbRn5Vv87pG49xlkrXnvh+v/K97txVg9Wu9+Ez3cuqv/0dc9EsfiD3v/p1YWLl06OMAKD9rhgBUzuH9vZVDAOZLTmItLy/FYrF22M61w9aZ+5iTWCf++8d2HGQNykDrxBc/1p3qAqB6hFk10+5E/OTViJdfr/sjAVTdnTdE3Pt+TyPAPGo2m92prNTprMfq2lqceuyBeOUvPjW2e5tTWie//PFYP/3K0PsAKDdhVo1kkPW9H0c883LEkZciHjta90cEqDqBFsD8yvXCLIePhYjOsWfi1TEGWYWc8Dr55U8MXQ9AuQmzauTFVyNa62fv72trESf0zQAVJ9ACmF/dtcOlpTj9rf8ysfuYHVx5AaA6hFkAVFq704nfOtSK/3Sbo9wB5lHn+NFoPf+Did6zU//3S0PXAVBewqwaufKSiOXG2ft72UrvVDCAqskAKwuBV1fXot1qd/tUbv+FTvzh+zqeS4A5s/rUtyd+h1af+j9D1wFQXk3PTX3kqcY3HIh4da13lwVZQFXkEe0ZWHU6ne6v++UKSh7lnidf/ZNfXIjsC/7kNyJOWqMGmAvTOnEwVw2XrnnH0PUAlI8wq2Yy0BJiAVWw3QArf90vO7QOH4j44BcEWgDzoHPCqUUAnMuaIQClkaFVu92JtbVW99Jut88EWRlc5THtebJVXvKUq8Egq3B4f8RDH4k4tH/oXQAAQMUJswCYqfMGWM1GLC8vRbO5dYA1KKdQv3pXxF03Dr0LAACoMGEWE/eTVz3GwLl2FGAt7u6vqntujfiT23uHXgAAANUnzGKifviziGde7r0F6i3Dqla7HatraxMPsAbddrA3pXXzNUPvAgAAKkYBPBN15SURL7/eewuU1/ee7Wx629557YUHS90JrE6nW+Ie53a498rbFxfHHlxt5up9EV/8UMTnHo349EPK4QEAoKqEWUzUnqWIX/x5jzGU1Ze+24r/9q1WvHp6fdNbeGDfQnzk15fi3W9vDL1vlK0DrN4JhItTCrBGufvG3omHH/1KxINHRnwAAABQatYMAWrq3v+5Gp/5+tqWQVY6enw9Pn7/ajzw/fbQ+wqDK4Sd9tkgK4Or5pkVwsZMg6xClsN/9vaIP/1tJx4CAEDVCLOA2nptLeKFE71LrsPWycNPtuOBH2weTo1y71dW4+mjZ9cRqxZgjXLLtb0urXvfH3HV3hEfAMDMLe494EkA4BzCLKB2MnN54sWIx46eDbOOvBTxNz/uBVx1sNWU1Vbu/6tWtFrtWF2tboA1Sq4dPvQRoRZAGTX3v3Uqt2rpmncMXQdAOQmzgNp58qXR5d+r7Yj/d6wXds27bx+5sDDre8+2e11YG6ocYI0i1ILZ2XuRB5/Rlt/2KyOvH6flt/2yRx+gQoRZQK3k5NWoIKvQWo948dWhq9lw7ETEYmMxlpaacxNgjVKEWtmp9d6DIz4AGLvD+uvYxOK+AxOfmrroXbcPXQdAeQmzgFrZTjfWy6eGrqJPs9GIhYWFWjwk2amVRfHf+t2If3+rsniAWbn0H340FlYumcifnlNZVgwBqkWYBQDncfW+iLtv7JXFf+WuiLtutIYIME05nXXJP/jdsf+JzSuvi0v/0UeHrgeg3JqeH6BO9iyd/85u52Oor1yFuufW3uX54xEPHIn4zrMRDx6Zv4fkspXe/c0JtfseHno3wFStXH9b94975S8+NZY/NoOsy37r47GwcunQ+wAoN2EWUCuXXxyx3OiVvW/mTf6fdlOXrNRjvXC7iomtvKQMtfLy+LHe26362comVyjz/mR4dfhA723+viDMAsogA63FfW+K1/73Z6L14jMXfIsu+qUPxJ53/44gC6CihFlA7bz9it6phVn2Pui6yyNWavCT8br9i/HMsZ0f2/jOa22nbyUnmPJSyMmtDLYeP9p7m79/4tgWn2DCcjUyA6rikqFVEWABVEX2W+3755+J1ae+HatHvh1rz30vOifO/8M1/7vGlW+Ni9/1ge7aIgDVJcwCaifXCN/5871TC4uy97wuJ7LqEGSl972jEZ/5+s7DrHe/vTF0HZsrQqPbBk5EPHG6F3DFxjTX4HWFDMC2mu66+Zqhq84J04pfF7cDYJ4sv+1XuhcA6keYBdRSYzHiTZf1LnV0+03N+Nr32zuazrrthkbc9g5h1jjsXTkbNPWHTwAAwPnZFwGoqU/90+X4lYPbC6c+cFMzPvaPl4euBwAAmDaTWQA1delFC/GJO5fj6aOdePjJzRvx3/eOZhzYp/gdAJhfue7fv9p/xZ761E9AFfn2BKi5tx5Y7F4AAOromZ9G/OS1c+/4Cyd6B6fkBSgfr14AAACopQytBoOsQr7v5deHrgZKQJgFAABALR09ufW9zkCrKk63fA1TH8IsAAAAaid7slrrW9/r19aGriqlvJ1/e7S3Mgl1IMwCAAAAoDIUwAMAAFA7e1cimgtbT2ftWRq6qpTydv7CAScwUh8ms2CC2p2IIy9VZzwZAADq5MBlW9/ZKp1mKMiiToRZMEF/90rvBJQqFUcCAEBdZFh1xZ7Rdzbfd/nFQ1cDJSC7hQkq/iXnTZd6lAEAoIyue2PEFZdEnMxC+E5Ec7EXcJl0gvLy7QkTVqXRZIDN3HxNxCPPbfJOAKi47M/KC1AN1gwBAAAAqAxhFgAAAACVIcwCAAAAoDKEWQAAzFR2sgEAbJcwCwAAAIDKEGYBAAAAUBnCLAAAAAAqo+mpAoD59/zx3uV8vvPs6A/Yzn8LFyq/vj79UMTeiyIO7z//Jzl8IGLvytDVAEBNCLMAYEpOnI54/OjoP+t8YdNmIVNsfN4njg1dDZXxwomI+x4e763dqlT+fKHZVmHZLdcOXQUATJkwCwA2bBYobRYkbXb948ciTp4euhqYokee2/rPevDI0FW7ctXeiKv3DX+GzYKz/NhRH79VkAYA9AizAKiswTBp1OTTqOtiGy90AXYip8vyMspug7PLVoYDsc1CssHJsc0+DgCqTJgFwFSNCpdykunEqbO/3+xjTDsBdZQ/+0YF8KNCsu2sa46aIhsMwUZNjlmxBKAshFkA7MjgKt52fr/ZtAIA0zdqimxUWHY+g71kgyuS5/s9AFwoYRZADQ0GUP3reoNTUcIoAEYZDMB2GogNhmH9k1+Dk2GCMAD6CbMAKmyrUKp/dc9pdwCUzYWGYYMdYv1B12BHmBAMYD4JswBKoj+YGpyOGgypdEcBUFeDHWLbDcH6u8IGQ6/+qTABGED5CbMAJqR/MmqrXwumAGDyBrvC+gv0NyvOP7T/bLDVv/q42a8BmA5hFsA29U9O9f96MKgSTgHAfOhf0d/OBFj/9Fd/yNU/7WXyC2D3hFlArW0WShVrfbqmAIDt6p/+2k74VZTg9689bhaCAXCWMAuYS0UYNSqsElABAGXQH3j1rz2OUgRfo8KuwQ4wgHknzAIqo78UvT+Y6r/Oih8AMI+K4Ot8E1/9PV9FsX1/ANZfdg9QVcIsoBQGJ6mEVAAAO7fdnq8i9Oqf6jLpBVSFMAuYqP5QqgisrPsBAMxW//+DbbXiWKw3jgq6THkBsyLMAi7YVkFVTlf1H38NAED1bGe9sZjyKtYZBV7ApAmzgE0VAZWgCgCAzRRTXjsJvEYFXwDbJcyCmiq6qQY7qqz+AQAwbtsJvIqVxmKaq3hbrDgCFIRZMKeKKar+aariYqoKAICyGVxpvO/hc29gMd1VhFuDb4H6EGZBRRXB1GBo5eQ/AADm0fmmu4RdUB/CLCipYu1vcB3QZBUAAAzbadg1uM4IVIcwC2aomKbqL1rXWQUAAOM3GHYNrjFmZ1dRSF+8LYrqgXIRZsGEFQFV/5SVVUAAACiXIuR68MjwzRo11eUkRpgdYRbs0qigKqetNhtvBgAAqmWrqa6r9p6d4MrL4BojMH7CLNgGgRUAADBK9tnmZdRrg8tWzl1XzKCr+9ZEF+yKMAv6WAkEAADGJV9HZMg1KugqJrr6J7l0dMH2CLOonSKkGgyunBAIAABMy+BEV//qYtHR1R9wFaEXIMxijmVY1T9dlW+dEggAAJTdYEdXYXBtURE9dSXMotKKyaoirDJlBQAAzKvBtcXBaa6ij6s/7IJ5JMyiEkatBuqyAgAA6Mlprrw8eOTcB6To5upfWRRyUXXCLEqlP7Qqfj2qLBEAAIDz2+y0xWJlsf+ERb1cVIUwi5kopquEVgAAANO32UmLRchlkosyE2YxUaM6rawHAgAAlNNmIdfgumJOcSmeZ1aEWYxNhlRFAXsxcaWIHQAAoPo2W1fsL57vn+aCSVpYX1/PT//NiPg1jzTbMbgi+Pixs0fHAgAAUG+j+risKjImn4iIj5vMYkuD01ZWBAEAANjKVquKxXqiKS52Q5jFGUVYVYRXCtkBAAAYl2JV8cEjEfc93Puk/VNc/W9hK8KsGupfEyzCK91WAAAATNtmU1w3X3Nu0bw1RfoJs+Zc0WnV33EluAIAAKDMioDr/sfO3sgsmx+c4tq74mmsI2HWHBkMrvRbAQAAMC+e2Dh8rD/gGuzhEnDVgzCrogRXAAAA1N2oHq7BgMuK4vwRZlXAYMdVvhVcAQAAwLBRAdfgiqKAq9qEWSXUH1opZwcAAIDdGbWieKhYTXSKYuUIs2asWBUswqv85gIAAAAmqwi4+uUpikX3VoZbeaIi5SPMmqJcFyymrfRcAQAAQLkUpygWiv6tYoLLemI5CLMmqH9VMN9aFwQAAIDq6O/fKuT0Vn/AZXpr+oRZYzI4ddWf5AIAAADzoZje+vyjvbtjemv6hFkX6PnjvdCqWBfUdQUAAAD1s9n0VtG9lW/3rvjCGCdh1jYVK4PFRdcVAAAAMMpg91aenFhMbeXFauLuCLM20R9cWRkEAAAALlRxcuL9j/U+Qf9qYrGeyPYJs/r6rorOK+EVAAAAMCmDq4mXrZzbuaV3a2sL6+vr+QHfjIhf2/Ij50h/eJUXfVcAAABAmRS9W8Ktc3wiIj5ei8ks4RUAAABQJUXv1n0P9260cOusuQyzhFcAAADAPBFunTU3YdYDR4RXAAAAQD0MhlvvPVifQvnKhllOGwQAAADoyTL5wUL5vNx2MOLqffP1IFWmAP7xY+cGWCdPD30IAAAAAAOu2tsXbr09Yu/K0IdURbcAvrRhVvZePfDk2fAqj6wEAAAAYHcO7T87tVWxvq3ynWaYoVXRfaX3CgAAAGD8MnPJy+cf7X3qqvVtzTTMev74ucXtVgcBAAAApqu/b6tYScx1xHxbxpXEqYdZRXiVK4RWBwEAAADKI7Oa+x/rXdLN15wNtsoytTXxMCunr4r1wSLlAwAAAKD8Hnmud4kSTW1NJMzKkwf/7Ae6rwAAAADmxeDUVtG1lUXyV++b3p0cy2mG/ScP5gSW7isAAACA+siprZzYmvAJibs7zbC/vN36IAAAAEB95dRWno6Yl8tWeqHWpNYRdxRm5fpgTmBliGV9EAAAAIBBubE3uI5YTGyNYx3xvGFWsTro9EEAAAAAdurBvkMBD+2PuPOG3fVsjezMKsIr/VcAAAAATELRs5Xh1uH92/oDzu3MEmABAAAAMC39PVs7CbYW/t4frn85In5z6D0AAAAAMGVbBFvdyawMs9Y9KQAAAACUzUCwJcwCAAAAoBr2XRTHj5+K/7ro+QIAAACg7I6fijz/8N8IswAAAACoDGEWAAAAAJUhzAIAAACgMoRZAAAAAFSGMAsAAACAyhBmAQAAAFAZwiwAAAAAKkOYBQAAAEBlCLMAAAAAqAxhFgAAAACVIcwCAAAAoDKEWQAAAABUhjALAAAAgMoQZgEAAABQGcIsAAAAACpDmAUAAABAZQizAAAAAKgMYRYAAAAAlSHMAgAAAKAyhFkAAAAAVIYwCwAAAIDKEGYBAAAAUBnCLAAAAAAqQ5gFAAAAQGUIswAAAACoDGEWAAAAAJUhzAIAAACgMoRZAAAAAFSGMAsAAACAyhBmAQAAAFAZwiwAAAAAKkOYBQAAAEBlCLMAAAAAqAxhFgAAAACVIcwCAAAAoDKEWQAAAABUhjALAAAAgMoQZgEAAABQGcIsAAAAACpDmAUAAABAZQizAAAAAKiGiPj/HAVLJAzXoqIAAAAASUVORK5CYII=;clipPath=inset(0% 19% 10.76% 18.67%);" vertex="1" parent="aVNAB7Wc_1VSGetC9ETK-39">
          <mxGeometry x="10" y="5" width="66.32" height="50" as="geometry" />
        </mxCell>
        <mxCell id="aVNAB7Wc_1VSGetC9ETK-40" style="rounded=0;orthogonalLoop=1;jettySize=auto;html=1;dashed=1;strokeWidth=2;strokeColor=#FF0000;endArrow=none;endFill=0;" edge="1" parent="1" source="aVNAB7Wc_1VSGetC9ETK-16" target="aVNAB7Wc_1VSGetC9ETK-36">
          <mxGeometry relative="1" as="geometry" />
        </mxCell>
        <mxCell id="aVNAB7Wc_1VSGetC9ETK-41" style="rounded=0;orthogonalLoop=1;jettySize=auto;html=1;endArrow=none;endFill=0;dashed=1;strokeWidth=2;strokeColor=#FF0000;" edge="1" parent="1" source="aVNAB7Wc_1VSGetC9ETK-3" target="aVNAB7Wc_1VSGetC9ETK-36">
          <mxGeometry relative="1" as="geometry" />
        </mxCell>
        <mxCell id="aVNAB7Wc_1VSGetC9ETK-42" value="Images stammen von" style="text;html=1;align=center;verticalAlign=middle;resizable=0;points=[];autosize=1;strokeColor=#666666;fillColor=#f5f5f5;fontColor=#333333;" vertex="1" parent="1">
          <mxGeometry x="-100" y="228" width="140" height="30" as="geometry" />
        </mxCell>
      </root>
    </mxGraphModel>
  </diagram>
</mxfile>
